<svg width="16" height="16" viewBox="0 0 16 16" fill="none" xmlns="http://www.w3.org/2000/svg">
<path d="M5.66671 4.33333C5.66671 3.39733 5.66671 2.92867 5.89137 2.59267C5.98868 2.44702 6.11373 2.32197 6.25937 2.22467C6.59537 2 7.06404 2 8.00004 2C8.93604 2 9.40471 2 9.74071 2.22467C9.88636 2.32197 10.0114 2.44702 10.1087 2.59267C10.3334 2.92867 10.3334 3.39733 10.3334 4.33333M1.33337 8.33333H14.6667M14.6667 9.33333V9C14.6667 6.8 14.6667 5.7 13.9834 5.01667C13.3 4.33333 12.2 4.33333 10 4.33333H6.00004C3.80004 4.33333 2.70004 4.33333 2.01671 5.01667C1.33337 5.7 1.33337 6.8 1.33337 9V9.33333C1.33337 11.5333 1.33337 12.6333 2.01671 13.3167C2.70004 14 3.80004 14 6.00004 14H10C12.2 14 13.3 14 13.9834 13.3167C14.6667 12.6333 14.6667 11.5333 14.6667 9.33333Z" stroke="#6F6D6D" stroke-linecap="round" stroke-linejoin="round"/>
<path d="M6.66675 8.33325V8.99992C6.66675 9.30992 6.66675 9.46459 6.70075 9.59192C6.74621 9.76134 6.83544 9.91582 6.95947 10.0399C7.08351 10.1639 7.23799 10.2531 7.40741 10.2986C7.53475 10.3333 7.69008 10.3333 8.00008 10.3333C8.31008 10.3333 8.46475 10.3333 8.59208 10.2993C8.7615 10.2538 8.91598 10.1646 9.04002 10.0405C9.16406 9.91649 9.25329 9.76201 9.29875 9.59259C9.33341 9.46525 9.33341 9.30992 9.33341 8.99992V8.33325" stroke="#6F6D6D" stroke-linecap="round" stroke-linejoin="round"/>
</svg>
