<svg width="16" height="16" viewBox="0 0 16 16" fill="none" xmlns="http://www.w3.org/2000/svg">
<path d="M1.33337 8.00008C1.33337 5.64208 1.33337 4.46275 2.03537 3.67541C2.14782 3.54919 2.27093 3.43319 2.40471 3.32741C3.24137 2.66675 4.49404 2.66675 7.00004 2.66675H9.00004C11.506 2.66675 12.7587 2.66675 13.5947 3.32675C13.7289 3.43341 13.8523 3.54964 13.9647 3.67541C14.6667 4.46208 14.6667 5.64208 14.6667 8.00008C14.6667 10.3581 14.6667 11.5374 13.9647 12.3247C13.8517 12.4512 13.7279 12.5677 13.5947 12.6727C12.7587 13.3334 11.5067 13.3334 9.00004 13.3334H7.00004C4.49404 13.3334 3.24137 13.3334 2.40471 12.6734C2.27175 12.5681 2.14817 12.4514 2.03537 12.3247C1.33337 11.5381 1.33337 10.3581 1.33337 8.00008Z" stroke="#6F6D6D" stroke-linecap="round" stroke-linejoin="round"/>
<path d="M6.66675 10.6667H7.66675M9.66675 10.6667H12.0001" stroke="#6F6D6D" stroke-miterlimit="10" stroke-linecap="round" stroke-linejoin="round"/>
<path d="M1.33337 6H14.6667" stroke="#6F6D6D" stroke-linejoin="round"/>
</svg>
