<svg width="16" height="16" viewBox="0 0 16 16" fill="none" xmlns="http://www.w3.org/2000/svg">
<path d="M11.5 2V7M14 4.5H9M9.12667 12.9713C9 12.6647 9 12.2767 9 11.5C9 10.7233 9 10.3353 9.12667 10.0287C9.21042 9.82646 9.33319 9.64272 9.48796 9.48796C9.64272 9.33319 9.82646 9.21042 10.0287 9.12667C10.3353 9 10.7233 9 11.5 9C12.2767 9 12.6647 9 12.9713 9.12667C13.1735 9.21042 13.3573 9.33319 13.512 9.48796C13.6668 9.64272 13.7896 9.82646 13.8733 10.0287C14 10.3353 14 10.7233 14 11.5C14 12.2767 14 12.6647 13.8733 12.9713C13.7896 13.1735 13.6668 13.3573 13.512 13.512C13.3573 13.6668 13.1735 13.7896 12.9713 13.8733C12.6647 14 12.2767 14 11.5 14C10.7233 14 10.3353 14 10.0287 13.8733C9.82646 13.7896 9.64272 13.6668 9.48796 13.512C9.33319 13.3573 9.21042 13.1735 9.12667 12.9713ZM2.12667 12.9713C2 12.6647 2 12.2767 2 11.5C2 10.7233 2 10.3353 2.12667 10.0287C2.21042 9.82646 2.33319 9.64272 2.48796 9.48796C2.64272 9.33319 2.82646 9.21042 3.02867 9.12667C3.33533 9 3.72333 9 4.5 9C5.27667 9 5.66467 9 5.97133 9.12667C6.17354 9.21042 6.35728 9.33319 6.51204 9.48796C6.66681 9.64272 6.78958 9.82646 6.87333 10.0287C7 10.3353 7 10.7233 7 11.5C7 12.2767 7 12.6647 6.87333 12.9713C6.78958 13.1735 6.66681 13.3573 6.51204 13.512C6.35728 13.6668 6.17354 13.7896 5.97133 13.8733C5.66467 14 5.27667 14 4.5 14C3.72333 14 3.33533 14 3.02867 13.8733C2.82646 13.7896 2.64272 13.6668 2.48796 13.512C2.33319 13.3573 2.21042 13.1735 2.12667 12.9713ZM2.12667 5.97133C2 5.66467 2 5.27667 2 4.5C2 3.72333 2 3.33533 2.12667 3.02867C2.21042 2.82646 2.33319 2.64272 2.48796 2.48796C2.64272 2.33319 2.82646 2.21042 3.02867 2.12667C3.33533 2 3.72333 2 4.5 2C5.27667 2 5.66467 2 5.97133 2.12667C6.17354 2.21042 6.35728 2.33319 6.51204 2.48796C6.66681 2.64272 6.78958 2.82646 6.87333 3.02867C7 3.33533 7 3.72333 7 4.5C7 5.27667 7 5.66467 6.87333 5.97133C6.78958 6.17354 6.66681 6.35728 6.51204 6.51204C6.35728 6.66681 6.17354 6.78958 5.97133 6.87333C5.66467 7 5.27667 7 4.5 7C3.72333 7 3.33533 7 3.02867 6.87333C2.82646 6.78958 2.64272 6.66681 2.48796 6.51204C2.33319 6.35728 2.21042 6.17354 2.12667 5.97133Z" stroke="#6F6D6D" stroke-linecap="round" stroke-linejoin="round"/>
</svg>
