<svg width="16" height="16" viewBox="0 0 16 16" fill="none" xmlns="http://www.w3.org/2000/svg">
<path d="M6.5 2H3.83333C3.368 2 3.13533 2 2.94667 2.05733C2.73658 2.12087 2.54543 2.23528 2.39017 2.39042C2.23491 2.54556 2.12036 2.73663 2.05667 2.94667C2 3.13533 2 3.368 2 3.83333C2 4.29867 2 4.53133 2.05733 4.72C2.12087 4.93009 2.23528 5.12124 2.39042 5.2765C2.54556 5.43175 2.73663 5.54631 2.94667 5.61C3.136 5.66733 3.36867 5.66733 3.834 5.66733H6.50067C6.966 5.66733 7.19867 5.66733 7.38733 5.61C7.59722 5.54643 7.78819 5.43208 7.94332 5.27707C8.09845 5.12206 8.21294 4.93117 8.27667 4.72133C8.334 4.532 8.334 4.29933 8.334 3.834C8.334 3.36867 8.334 3.136 8.27667 2.94733C8.2131 2.73745 8.09875 2.54648 7.94373 2.39135C7.78872 2.23622 7.59784 2.12172 7.388 2.058C7.198 2 6.96533 2 6.5 2ZM14 6.5V3.83333C14 3.368 14 3.13533 13.9427 2.94667C13.8791 2.73678 13.7647 2.54581 13.6097 2.39068C13.4547 2.23555 13.2638 2.12106 13.054 2.05733C12.8647 2 12.632 2 12.1667 2C11.7013 2 11.4687 2 11.28 2.05733C11.0701 2.1209 10.8791 2.23525 10.724 2.39027C10.5689 2.54528 10.4544 2.73616 10.3907 2.946C10.3333 3.13533 10.3333 3.368 10.3333 3.83333V6.5C10.3333 6.96533 10.3333 7.198 10.3907 7.38667C10.4542 7.59655 10.5686 7.78752 10.7236 7.94265C10.8786 8.09778 11.0695 8.21228 11.2793 8.276C11.4687 8.33333 11.7013 8.33333 12.1667 8.33333C12.632 8.33333 12.8647 8.33333 13.0533 8.276C13.2632 8.21243 13.4542 8.09808 13.6093 7.94307C13.7644 7.78806 13.8789 7.59717 13.9427 7.38733C14 7.198 14 6.96533 14 6.5ZM11.28 13.9427C11.4687 14 11.7013 14 12.1667 14C12.632 14 12.8647 14 13.0533 13.9427C13.2632 13.8791 13.4542 13.7647 13.6093 13.6097C13.7644 13.4547 13.8789 13.2638 13.9427 13.054C14 12.8647 14 12.632 14 12.1667C14 11.7013 14 11.4687 13.9427 11.28C13.8791 11.0701 13.7647 10.8791 13.6097 10.724C13.4547 10.5689 13.2638 10.4544 13.054 10.3907C12.8647 10.3333 12.632 10.3333 12.1667 10.3333C11.7013 10.3333 11.4687 10.3333 11.28 10.3907C11.0701 10.4542 10.8791 10.5686 10.724 10.7236C10.5689 10.8786 10.4544 11.0695 10.3907 11.2793C10.3333 11.4687 10.3333 11.7013 10.3333 12.1667C10.3333 12.632 10.3333 12.8647 10.3907 13.0533C10.4542 13.2632 10.5686 13.4542 10.7236 13.6093C10.8786 13.7644 11.0702 13.8789 11.28 13.9427ZM5.66667 7.66667H4.66667C3.40933 7.66667 2.78133 7.66667 2.39067 8.05733C2 8.448 2 9.076 2 10.3333V11.3333C2 12.5907 2 13.2187 2.39067 13.6093C2.78133 14 3.40933 14 4.66667 14H5.66667C6.924 14 7.552 14 7.94267 13.6093C8.33333 13.2187 8.33333 12.5907 8.33333 11.3333V10.3333C8.33333 9.076 8.33333 8.448 7.94267 8.05733C7.552 7.66667 6.924 7.66667 5.66667 7.66667Z" stroke="#6F6D6D" stroke-linejoin="round"/>
</svg>
