<svg width="16" height="16" viewBox="0 0 16 16" fill="none" xmlns="http://www.w3.org/2000/svg">
<path d="M6.25263 2.55525L6.14463 1.91992C6.09796 1.63992 6.07396 1.49992 5.97263 1.41659C5.8713 1.33325 5.72463 1.33325 5.43063 1.33325H5.2373C4.94396 1.33325 4.7973 1.33325 4.69596 1.41659C4.59463 1.49992 4.57063 1.63992 4.5233 1.91992L4.41596 2.55525C4.19087 2.6438 3.97961 2.76414 3.78863 2.91259L3.18863 2.69125C2.9113 2.58925 2.7733 2.53792 2.6473 2.58192C2.5213 2.62592 2.4473 2.75059 2.3013 2.99992L2.19463 3.18192C2.05196 3.42459 1.9813 3.54592 2.00463 3.67059C2.0273 3.79525 2.13796 3.88525 2.3593 4.06392L2.87063 4.47859C2.83633 4.71423 2.83633 4.9536 2.87063 5.18925L2.36063 5.60259C2.1393 5.78192 2.0293 5.87125 2.00596 5.99592C1.98263 6.12059 2.0533 6.24259 2.19596 6.48459L2.30263 6.66725C2.4493 6.91659 2.52263 7.04059 2.64863 7.08525C2.77463 7.12859 2.91263 7.07792 3.18996 6.97592L3.7893 6.75459C3.97796 6.90125 4.1893 7.02259 4.41596 7.11125L4.5233 7.74659C4.57063 8.02659 4.59463 8.16659 4.69596 8.24992C4.7973 8.33325 4.94396 8.33325 5.2373 8.33325H5.43063C5.72396 8.33325 5.87063 8.33325 5.97263 8.24992C6.07463 8.16659 6.0973 8.02659 6.14463 7.74659L6.25263 7.11125C6.4793 7.02259 6.68996 6.90192 6.87863 6.75525L7.47663 6.97525C7.75396 7.07792 7.89196 7.12859 8.01796 7.08525C8.14463 7.04125 8.21796 6.91659 8.36396 6.66725L8.47063 6.48459C8.61263 6.24192 8.68396 6.12059 8.66063 5.99592C8.63796 5.87125 8.5273 5.78192 8.30596 5.60259L7.7973 5.19059C7.83186 4.95406 7.83186 4.71377 7.7973 4.47725L8.3073 4.06392C8.52863 3.88525 8.6393 3.79525 8.66196 3.67059C8.68463 3.54592 8.61463 3.42459 8.47196 3.18192L8.3653 2.99992C8.21863 2.75059 8.1453 2.62592 8.0193 2.58192C7.8933 2.53792 7.7553 2.58859 7.47796 2.69125L6.8793 2.91192C6.69063 2.76525 6.4793 2.64392 6.25263 2.55525ZM11.586 8.88859L11.478 8.25325C11.4313 7.97325 11.4066 7.83325 11.306 7.74992C11.2053 7.66659 11.058 7.66659 10.764 7.66659H10.5706C10.2773 7.66659 10.1306 7.66659 10.0293 7.74992C9.92796 7.83325 9.90396 7.97325 9.85663 8.25325L9.7493 8.88859C9.5242 8.97714 9.31294 9.09747 9.12196 9.24592L8.52196 9.02459C8.24463 8.92259 8.10663 8.87125 7.98063 8.91525C7.85463 8.95925 7.78063 9.08392 7.63463 9.33325L7.52796 9.51525C7.3853 9.75792 7.31463 9.87925 7.33796 10.0039C7.36063 10.1293 7.4713 10.2186 7.69263 10.3973L8.20396 10.8119C8.16966 11.0476 8.16966 11.2869 8.20396 11.5226L7.69396 11.9359C7.47263 12.1153 7.36196 12.2046 7.3393 12.3293C7.31663 12.4539 7.3873 12.5759 7.5293 12.8179L7.63596 13.0006C7.78263 13.2499 7.85596 13.3739 7.98196 13.4186C8.10796 13.4619 8.24596 13.4113 8.5233 13.3093L9.12263 13.0879C9.3113 13.2346 9.52263 13.3559 9.7493 13.4446L9.85663 14.0799C9.90396 14.3599 9.92796 14.4999 10.0293 14.5833C10.1306 14.6666 10.2773 14.6666 10.5706 14.6666H10.764C11.0573 14.6666 11.204 14.6666 11.306 14.5833C11.4066 14.4999 11.4306 14.3599 11.478 14.0799L11.586 13.4446C11.8126 13.3559 12.0233 13.2353 12.212 13.0886L12.81 13.3086C13.0873 13.4113 13.2253 13.4619 13.3513 13.4186C13.478 13.3746 13.5513 13.2499 13.6966 13.0006L13.804 12.8179C13.946 12.5753 14.0173 12.4539 13.994 12.3293C13.9706 12.2046 13.8606 12.1153 13.6393 11.9359L13.1306 11.5239C13.1652 11.2874 13.1652 11.0471 13.1306 10.8106L13.6406 10.3973C13.862 10.2186 13.9726 10.1293 13.996 10.0039C14.0186 9.87925 13.948 9.75792 13.8053 9.51525L13.6986 9.33325C13.552 9.08392 13.4786 8.95925 13.3526 8.91525C13.2266 8.87125 13.0886 8.92192 12.8113 9.02459L12.2126 9.24525C12.024 9.09859 11.8126 8.97725 11.586 8.88859Z" stroke="#6F6D6D" stroke-width="0.75" stroke-linejoin="round"/>
<path d="M5.83325 4.83325C5.83325 4.96586 5.78057 5.09304 5.68681 5.18681C5.59304 5.28057 5.46586 5.33325 5.33325 5.33325C5.20064 5.33325 5.07347 5.28057 4.9797 5.18681C4.88593 5.09304 4.83325 4.96586 4.83325 4.83325C4.83325 4.70064 4.88593 4.57347 4.9797 4.4797C5.07347 4.38593 5.20064 4.33325 5.33325 4.33325C5.46586 4.33325 5.59304 4.38593 5.68681 4.4797C5.78057 4.57347 5.83325 4.70064 5.83325 4.83325ZM11.1666 11.1666C11.1666 11.2992 11.1139 11.4264 11.0201 11.5201C10.9264 11.6139 10.7992 11.6666 10.6666 11.6666C10.534 11.6666 10.4068 11.6139 10.313 11.5201C10.2193 11.4264 10.1666 11.2992 10.1666 11.1666C10.1666 11.034 10.2193 10.9068 10.313 10.813C10.4068 10.7193 10.534 10.6666 10.6666 10.6666C10.7992 10.6666 10.9264 10.7193 11.0201 10.813C11.1139 10.9068 11.1666 11.034 11.1666 11.1666Z" stroke="#6F6D6D" stroke-width="0.75" stroke-linejoin="round"/>
</svg>
