<svg width="134" height="76" viewBox="0 0 134 76" fill="none" xmlns="http://www.w3.org/2000/svg">
<path fill-rule="evenodd" clip-rule="evenodd" d="M50.0219 66.2049C35.7286 66.3037 25.4475 66.381 25.4475 66.3864C0.0492729 66.3864 0.0431473 66.5311 0.00486227 67.3749L0.00409626 67.3841V67.3864C-0.00202934 67.5158 -0.00662335 67.623 0.0316616 67.7126C0.223087 68.1613 1.50257 68.1452 9.22236 68.0487C14.1068 67.9882 21.5685 67.8948 32.9629 67.8672H49.7723C49.8443 67.3389 49.9293 66.7753 50.0211 66.2049H50.0219ZM70.3849 67.8672L70.3489 67.6253C70.264 67.0617 70.1828 66.5449 70.1062 66.0709C74.7655 66.0403 79.5305 66.0104 84.2602 65.9813C84.1139 66.5717 83.9639 67.1858 83.8 67.8672H70.3849ZM124.518 67.8672H116.196C116.064 67.3044 115.895 66.6107 115.696 65.8075C123.168 65.773 129.196 65.7539 132.693 65.7585V65.7592C133.369 65.76 133.771 66.0969 133.771 66.6283C133.771 67.6903 133.047 67.8029 124.518 67.8672Z" fill="#0F0F0F"/>
<path d="M59.6136 58.1939C57.4413 58.1939 57.2958 54.8945 59.6458 54.8945C61.8663 54.8945 61.8824 58.1939 59.6136 58.1939Z" fill="#0F0F0F"/>
<path d="M20.1989 6.25882C20.9715 6.33922 20.9875 7.30477 21.728 6.66081C22.9508 5.59802 23.4179 6.5965 22.6774 7.1432C21.3903 8.0942 23.3658 8.17154 22.8061 8.96251C22.5794 9.28334 22.1621 9.02683 21.9048 8.76955C21.277 8.14168 21.1368 8.72897 20.1828 9.23663C19.8145 9.43265 19.3926 9.18762 19.6031 8.60875C19.7149 8.30247 20.842 7.8844 19.8122 6.98317C19.5388 6.70982 19.8283 6.25882 20.1981 6.25882H20.1989Z" fill="#0F0F0F"/>
<path d="M25.8504 6.88675C27.0893 6.87833 27.0571 8.60881 25.8986 8.60881C24.8205 8.60881 24.6437 6.89517 25.8504 6.88675Z" fill="#0F0F0F"/>
<path d="M71.2321 44.0965C63.2014 44.1425 43.3422 44.3224 42.2159 44.3056C36.8889 44.2275 37.1025 45.1746 37.2273 39.7351C37.2419 39.0919 37.7105 38.9327 38.2733 38.9311C79.811 38.7933 79.6249 37.9013 79.7941 39.1072C79.9831 40.4178 80.0584 41.7423 80.0192 43.0659C79.984 44.1279 80.1479 44.0452 71.2321 44.0958V44.0965ZM55.9594 39.5261C55.026 39.5131 55.5192 39.9281 55.4602 42.7933C55.4426 43.6785 55.4763 43.3852 62.8147 43.2926C79.9381 43.0751 79.311 43.5659 79.278 42.7933C79.1532 39.8806 79.3745 39.2053 78.5859 39.2688C77.5721 39.3507 58.9679 39.5682 55.9587 39.5261H55.9594ZM51.5268 39.9327C51.513 39.5958 51.4073 39.5291 50.8897 39.5582C50.5681 39.5766 50.2159 39.4618 50.2458 40.0253C50.4341 43.5613 49.9426 43.5445 50.938 43.5016C51.4464 43.4794 51.5911 43.5238 51.621 43.0345C51.6439 42.6563 51.5337 40.0996 51.5268 39.9334V39.9327ZM45.4341 43.1632C45.4295 43.6463 45.7879 43.533 46.0459 43.533C46.3032 43.5169 46.6669 43.6616 46.6577 43.1792C46.5903 39.6394 46.7557 39.7466 46.4326 39.6386C44.9747 39.1517 45.4586 40.4916 45.4349 43.1632H45.4341ZM40.7029 43.1471C40.673 43.5981 40.8797 43.654 41.2503 43.6624C41.6523 43.6708 41.7955 43.5498 41.7817 43.131C41.6692 39.8002 42.0068 39.5215 41.2825 39.5582C40.1715 39.6149 40.9104 40.0582 40.7029 43.1471Z" fill="#9E76F8"/>
<path d="M55.2845 32.8319C55.5257 32.1397 55.0892 31.1956 54.4154 30.9482C54.286 30.9015 54.3633 30.8257 51.5831 31.9949C50.5195 32.4421 50.7875 31.9176 49.4269 28.7599C49.2331 28.3096 49.2829 28.0378 49.7485 27.8257C50.5547 27.4605 51.3258 27.0064 52.1466 26.6519C52.8871 26.3303 52.5325 25.7024 52.6298 25.2032C52.8549 24.0447 49.0256 24.0608 49.7653 22.4352C51.054 19.6036 50.8273 18.8463 51.7607 19.2483C52.5815 19.6021 53.4177 19.8777 54.2232 20.2621C54.8342 20.5531 55.0111 19.9865 55.3656 19.779C55.6704 19.6006 55.7125 19.5822 54.593 16.9459C54.2577 16.1572 54.8411 16.3195 58.005 14.9834C58.5693 14.7453 58.6727 14.867 59.7592 17.2361C60.0831 17.9428 62.2156 18.3448 62.8167 16.4313C63.4545 14.4015 64.2324 15.4351 64.8121 15.6266C65.6 15.8861 66.3588 16.233 67.1298 16.5278C67.5012 16.6702 67.5663 16.9145 67.4193 17.2682C66.1796 20.2522 66.4055 19.4888 67.0816 20.3578C67.4193 20.792 67.515 20.5967 70.1873 19.4405C71.0073 19.086 70.9507 19.6794 72.247 22.7713C72.4897 23.351 72.4852 23.4911 69.7524 24.7675C69.4001 24.9321 69.2715 25.1213 69.2692 25.524C69.2608 26.9406 69.2348 26.9298 70.5724 27.5194C71.8251 28.0707 72.2738 28.1932 72.0533 28.7744C70.6253 32.5294 70.8312 32.521 70.0579 32.2346C66.8442 31.0455 67.59 30.9276 66.453 31.8487C66.0701 32.1588 66.0357 32.2752 67.2738 34.6971C67.7034 35.5363 67.1827 35.449 64.1199 36.9329C63.7187 37.1282 63.4285 37.0784 63.2026 36.6604C61.7079 33.8908 61.7056 33.8763 61.1107 33.8923C59.9361 33.9245 59.9422 33.9107 59.5012 34.9865C58.7546 36.8089 58.6643 37.2392 57.8595 36.9498C53.6436 35.4337 53.9981 36.5156 55.2845 32.8296V32.8319ZM60.933 21.0676C58.2615 20.8908 55.7025 23.256 55.7347 25.8793C55.8151 32.4773 66.0586 32.3326 66.0341 25.7185C66.0249 23.3042 63.636 20.9068 60.9323 21.0676H60.933Z" fill="#9E76F8"/>
<path d="M41.0415 30.3211C40.9611 29.9352 41.3325 29.3195 40.5745 29.0339C39.5783 28.6587 38.7904 30.7866 38.1763 29.8226C37.4068 28.6128 36.5836 28.3593 37.3555 27.7307C38.4994 26.7988 38.576 26.6694 38.4496 26.3142C38.2039 25.6235 38.0637 25.6825 37.3394 25.5737C36.2299 25.4068 36.1686 25.3655 36.3738 24.2383C36.4558 23.7881 36.2437 23.2391 36.5989 22.9351C37.0155 22.5791 37.5798 23.0906 38.4818 22.9673C38.8516 22.9168 39.2008 22.537 38.6426 21.8409C37.847 20.8486 37.8524 20.857 38.8838 20.0385C40.1043 19.0699 39.8409 19.1625 40.7506 20.1671C41.1564 20.6151 41.5232 20.5706 42.0216 20.4566C42.9236 20.2498 42.0377 18.3494 43.3899 18.6541C45.2567 19.0745 45.3762 18.2062 45.1442 20.3762C45.1151 20.6503 45.2751 20.7743 45.4979 20.8915C45.8555 21.0783 45.9979 20.8762 47.0753 19.9742C47.5745 19.5561 47.6212 20.0722 48.7973 21.3907C49.4727 22.148 47.2935 22.3907 47.7031 23.8532C47.8295 24.3042 48.1855 24.2238 48.4918 24.2874C49.5056 24.4987 49.7146 24.1909 49.6342 25.3494C49.5531 26.524 49.7468 27.1021 49.0546 27.0232C47.6227 26.8593 47.3777 26.8287 47.1557 27.2483C46.9267 27.6809 47.1235 27.844 47.3165 28.0691C47.9497 28.8088 47.9068 29.4903 47.1878 30.1128C46.3218 30.8555 46.3157 30.8555 45.4818 30.0646C45.1105 29.7116 44.8073 29.1993 44.1135 29.501C43.8884 29.599 43.7759 29.6457 43.7598 29.903C43.6641 31.4321 43.6472 31.6526 43.0997 31.6251C40.8157 31.5094 41.04 31.8663 41.04 30.3218L41.0415 30.3211ZM43.0209 27.8425C46.867 27.8111 47.0117 22.1763 43.1174 22.2261C39.2873 22.2743 38.9328 27.8762 43.0209 27.8425Z" fill="#9E76F8"/>
<path d="M72.5197 18.8278C72.4232 18.4901 72.8436 17.8722 72.1016 17.6049C71.7808 17.4893 71.5847 17.4901 71.3129 17.7014C69.9844 18.7351 69.9829 18.7428 68.9469 17.4281C68.3872 16.7175 68.3803 16.716 69.0595 16.0766C69.7968 15.3813 70.0732 15.2558 69.8964 14.7083C69.4285 13.2604 67.0365 15.647 68.0135 11.5865C68.0794 11.3132 68.2072 11.3568 69.7838 11.5222C70.2348 11.5697 70.6988 11.1057 70.2831 10.5881C70.1537 10.4273 70.0564 10.2358 69.9293 10.0735C69.3765 9.36907 69.3673 9.36677 70.1062 8.78637C71.3313 7.82312 71.3351 7.81393 72.4561 8.88285C72.8926 9.29862 73.8068 9.02756 73.9531 8.43261C74.2724 7.12863 74.2754 7.18605 75.7073 7.27411C76.6728 7.33307 76.852 7.22817 76.6407 8.91577C76.5962 9.27029 77.0733 9.7343 77.5419 9.34992C78.728 8.37748 78.8956 8.17381 79.2318 8.62557C80.4952 10.3254 80.7418 10.1034 79.8114 10.9755C79.2463 11.5038 78.9079 11.6524 79.1192 12.134C79.4378 12.8599 79.3765 12.7144 79.9079 12.8262C80.8413 13.0215 81.2379 13.5957 81.0986 14.5483C80.924 15.7236 80.9217 15.706 79.7303 15.546C79.4891 15.5138 79.2303 15.461 78.9898 15.5138C78.5855 15.6026 78.4561 16.1754 78.7165 16.5115C79.6568 17.7259 79.8903 17.6049 78.9416 18.4426C77.8306 19.4227 77.8229 19.4327 76.7532 18.3783C76.4936 18.1225 76.2693 17.827 75.8038 17.9924C75.4485 18.118 75.3191 18.2657 75.2563 18.6685C74.9753 20.4702 75.4171 20.1922 73.5181 20.1654C72.231 20.1463 72.5204 19.9564 72.5204 18.8301L72.5197 18.8278ZM74.4668 16.3813C78.3129 16.3653 78.4898 10.7244 74.5955 10.7489C70.7494 10.7718 70.4431 16.3982 74.4668 16.3813Z" fill="#9E76F8"/>
<path d="M60.8673 28.8245C57.0212 28.7931 56.9408 23.2686 61.0924 23.3207C64.6973 23.3659 64.8421 28.8567 60.8673 28.8245Z" fill="#9E76F8"/>
<path fill-rule="evenodd" clip-rule="evenodd" d="M85.6854 60.5854C81.4036 60.5991 76.1494 60.639 69.703 60.7515C69.5154 60.7546 69.3883 60.7492 69.3155 60.8089C69.0513 61.0272 69.4985 62.1091 70.3308 67.6237C70.5069 68.7914 70.5605 69.2485 70.814 69.4361C71.0008 69.5739 71.2956 69.5655 71.8278 69.5869C75.4166 69.7278 76.8607 71.7577 76.5269 72.5479C76.4917 72.6313 76.4641 72.7003 76.4212 72.7585C76.0675 73.2347 74.6586 72.9277 59.098 73.2883L54.5827 73.3955C43.1071 73.6735 42.7013 73.6834 43.0849 72.6444C43.542 71.4078 44.5168 70.7592 45.7404 70.456C47.2511 70.0816 48.1592 70.0486 48.709 70.0287C49.3774 70.005 49.5176 69.9996 49.5704 69.4261C49.7649 67.3013 50.4502 63.4384 50.8575 61.6527C50.8943 61.4935 50.9418 61.3763 50.9081 61.2936C50.7641 60.9391 49.1355 61.1895 38.8039 61.3312C23.4424 61.5425 21.1591 61.4996 19.6568 61.4713C19.0864 61.4606 18.6277 61.4514 17.6093 61.4598C13.875 61.4896 13.8605 59.5739 13.7923 50.995C13.7816 49.2636 13.7612 47.5323 13.7311 45.8012C13.6338 40.5064 13.4118 21.9994 13.3934 15.6426C13.3873 13.6081 13.3735 11.847 13.3612 10.321C13.2869 1.09047 13.2824 0.48021 15.5335 0.257391C16.9822 0.113439 100.617 -0.319182 102.663 0.418187C102.761 0.454175 102.854 0.484801 102.94 0.528446C103.808 0.967958 104.02 2.7038 104.068 23.8693C103.393 23.7743 102.078 23.8586 99.3424 23.9558L99.3493 22.5622C99.4075 10.3103 99.4075 10.3064 98.6556 10.3156C83.4281 10.4917 81.7199 10.6472 81.5139 10.1632C81.4878 10.102 81.4863 10.0293 81.484 9.94579C81.4718 9.47106 81.7145 9.47489 81.9909 9.47871H82.0637L98.8003 9.30184C99.2835 9.30184 99.282 9.23905 99.2574 8.05375C99.2475 7.54303 99.2322 6.82327 99.2506 5.80948C99.2559 5.51086 65.6899 5.38375 41.7794 5.29263C29.6277 5.24669 19.97 5.2107 18.4784 5.16553V5.16629C17.9631 5.15098 17.7418 5.26354 17.7701 5.87456C17.8252 7.05604 17.8283 7.88453 17.8306 8.46646C17.8344 9.77198 17.8352 9.82864 18.4141 9.81715H61.2236C61.5008 9.81485 61.8836 9.80873 62.3308 9.80184C65.0391 9.7559 70.0751 9.67014 67.8255 10.3195C66.6861 10.6487 61.8461 10.6663 41.2855 10.7421C37.0918 10.7574 32.2434 10.7758 26.6392 10.7988C19.6744 10.8279 18.2701 10.5254 17.996 10.9519C17.9248 11.0614 17.9294 11.2191 17.9324 11.4427L18.3023 41.4245C18.3253 43.5378 18.3138 45.0669 18.3053 46.1711C18.2839 49.0355 18.2839 49.044 18.9462 48.9881C25.3896 48.4452 68.1072 48.2216 88.9871 48.1312C88.5223 49.8924 88.1104 51.4475 87.7436 52.8319C57.438 53.0218 41.6676 53.3112 32.2863 53.4843C23.4447 53.6466 20.2778 53.7048 15.9677 53.4766C15.4363 53.449 15.2915 53.6052 15.3237 54.1206C15.3597 54.6971 15.385 55.2232 15.4087 55.7017C15.5496 58.5892 15.607 59.7653 17.4156 60.1076L17.5833 60.1382C18.7012 60.3327 19.8903 60.1206 70.6524 59.1259V59.1252C72.6777 59.0854 79.291 59.0409 86.1058 58.9988L85.6854 60.5854ZM66.9503 70.6329H66.951C67.3385 70.554 67.3262 70.2301 67.3109 69.8013C67.3073 69.7085 67.3052 69.6155 67.3048 69.5226L67.2451 69.0555C66.9702 66.907 66.6555 64.4491 66.1624 62.4093C65.9365 61.4759 63.4885 60.7523 65.3576 66.9797C66.4832 70.7286 66.549 70.7148 66.9503 70.6329Z" fill="#0F0F0F"/>
<path d="M77.0738 74.544C77.72 72.4529 78.6672 69.7638 80.8556 69.7806C82.9796 69.7967 83.3464 69.8442 83.511 69.1527C85.4482 61.0156 85.0975 63.1336 94.9858 25.1862C95.2791 24.0607 95.3235 24.0721 96.4666 24.0438C104.689 23.8394 104.551 23.4512 104.915 24.7682C104.978 24.994 115.552 64.3097 116.487 69.0249C116.824 70.7308 121.596 66.7347 123.02 74.0134C123.184 74.8495 122.586 75.3312 121.814 75.3327C75.867 75.4613 76.5615 76.2025 77.0745 74.544H77.0738ZM112.768 59.1427C112.407 57.9222 111.647 54.8165 111.079 52.7859C110.951 52.3295 110.943 52.23 109.871 52.2629C108.601 52.302 92.8778 52.8586 89.498 52.609C88.8219 52.5592 89.1289 52.5569 87.2124 59.642C87.034 60.3012 87.5501 60.011 88.6611 59.9796C113.637 59.2875 113.084 60.2071 112.769 59.1427H112.768ZM114.764 73.5142C121.893 73.4521 122.136 73.8036 121.732 72.8541C121.171 71.5341 120.429 70.4567 118.964 70.4881C78.4742 71.3595 80.4405 69.0095 78.5868 73.1114C78.1212 74.142 77.2836 73.6428 91.6221 73.6267C99.3464 73.6183 107.056 73.5808 114.764 73.5142ZM107.329 41.0056C108.346 41.0224 107.886 40.9643 106.058 33.7636C105.878 33.0561 105.961 33.3731 98.9927 33.3938C94.4544 33.4068 94.0447 33.0569 94.0202 33.7154C94.008 34.0377 92.8081 38.272 92.2821 40.5071C92.1718 40.9742 91.8257 41.1197 93.1144 41.1549C94.2262 41.1855 105.317 40.9727 107.329 41.0048V41.0056Z" fill="#9E76F8"/>
</svg>
