<svg width="15" height="24" viewBox="0 0 15 24" fill="none" xmlns="http://www.w3.org/2000/svg">
<path d="M2.17341 11.1737C3.99205 9.95608 4.03069 7.30553 2.24821 6.03598L1.43472 5.45658C0.358204 4.68985 0.182452 3.16531 1.05659 2.1758C1.77837 1.3587 2.70982 0.752404 3.7513 0.421856L3.79956 0.406533C5.24265 -0.0515161 6.78134 -0.123925 8.26141 0.196563L8.71794 0.295423L11.3707 5.83781L10.0405 4.80479C8.6719 3.74196 6.77209 3.67541 5.33187 4.63985L5.14789 4.76306C4.03781 5.50649 3.42661 6.79608 3.55623 8.1217L3.62233 8.79805C3.78588 10.4716 5.07365 11.8192 6.74463 12.0654L7.51994 12.1797C8.54191 12.3303 9.29216 13.2136 9.27145 14.2418C9.25832 14.8946 8.92669 15.5058 8.38899 15.8798C7.42823 16.5479 6.09183 16.3098 5.43828 15.3414L5.13411 14.8906C4.64273 14.1625 3.62695 14.0164 2.94863 14.5764L2.21604 15.1812L2.44171 15.5958C3.77811 18.0512 6.80288 19.0478 9.34689 17.871C10.6738 17.2573 11.5474 15.9596 11.6134 14.5047L11.6339 14.0504C11.6993 12.6087 10.8122 11.2933 9.44692 10.8076L7.19784 10.0073C6.50084 9.75941 5.99956 9.14712 5.8961 8.41759L5.85672 8.13932C5.74911 7.38025 6.1865 6.64889 6.90809 6.3812C7.43211 6.18683 8.01936 6.27155 8.46637 6.60597L8.57815 6.68961C9.55815 7.4228 10.9716 6.99166 11.3707 5.83781L8.71794 0.295423L8.91366 0.337785C12.0574 1.01854 14.4384 3.58308 14.8728 6.75644L14.9711 8.28169C15.0196 9.03337 15.007 9.78775 14.9336 10.5374C14.7323 12.5925 14.0092 14.5628 12.8321 16.2629L7.65011 23.7477C7.4297 24.066 6.96485 24.0867 6.7168 23.7893L0.577501 16.4283C-0.482004 14.8173 -0.0431319 12.6577 1.56193 11.5831L2.17341 11.1737Z" fill="#F8F8F8"/>
</svg>
