<svg width="78" height="24" viewBox="0 0 78 24" fill="none" xmlns="http://www.w3.org/2000/svg">
<path d="M7.73128 7.53523C7.6833 7.05141 7.47737 6.67554 7.11351 6.40764C6.74964 6.13974 6.25583 6.00579 5.63206 6.00579C5.20821 6.00579 4.85034 6.06577 4.55845 6.18573C4.26656 6.30168 4.04264 6.46362 3.8867 6.67155C3.73475 6.87947 3.65878 7.11538 3.65878 7.37929C3.65078 7.59921 3.69676 7.79114 3.79672 7.95508C3.90069 8.11901 4.04264 8.26096 4.22257 8.38092C4.4025 8.49688 4.61043 8.59888 4.84634 8.68682C5.08226 8.77082 5.33417 8.84273 5.60207 8.90273L6.70566 9.16665C7.24146 9.28656 7.73328 9.4465 8.18112 9.64648C8.62898 9.84636 9.01684 10.0923 9.34469 10.3842C9.67255 10.6761 9.92644 11.02 10.1064 11.4158C10.2904 11.8116 10.3843 12.2655 10.3884 12.7773C10.3843 13.529 10.1924 14.1808 9.81252 14.7326C9.43666 15.2804 8.89289 15.7062 8.18112 16.0102C7.47338 16.31 6.61969 16.46 5.62006 16.46C4.62842 16.46 3.76474 16.308 3.02901 16.0042C2.29728 15.7002 1.72549 15.2504 1.31364 14.6546C0.905788 14.0548 0.691868 13.3131 0.671875 12.4294H3.18496C3.21294 12.8413 3.3309 13.1852 3.53882 13.461C3.75075 13.733 4.03264 13.9389 4.38451 14.0788C4.74038 14.2148 5.14223 14.2828 5.59007 14.2828C6.02991 14.2828 6.41176 14.2188 6.73565 14.0908C7.06353 13.9629 7.31744 13.7849 7.49737 13.557C7.6773 13.3291 7.76727 13.0672 7.76727 12.7713C7.76727 12.4954 7.6853 12.2635 7.52136 12.0755C7.36142 11.8876 7.12551 11.7277 6.81362 11.5957C6.50573 11.4638 6.12787 11.3438 5.68004 11.2359L4.34253 10.9C3.30691 10.648 2.4892 10.2542 1.88943 9.71839C1.28965 9.18259 0.991759 8.46089 0.995753 7.55322C0.991759 6.8095 1.18968 6.15974 1.58954 5.60394C1.99339 5.04814 2.54719 4.6143 3.25093 4.30241C3.95467 3.99053 4.75438 3.83458 5.65005 3.83458C6.56171 3.83458 7.35742 3.99053 8.03717 4.30241C8.72095 4.6143 9.25272 5.04814 9.63261 5.60394C10.0124 6.15974 10.2084 6.8035 10.2204 7.53523H7.73128ZM12.0872 19.7408V7.0734H14.6063V8.62082H14.7202C14.8322 8.37292 14.9941 8.12102 15.206 7.86511C15.4219 7.60521 15.7019 7.38928 16.0458 7.21735C16.3936 7.04141 16.8254 6.95344 17.3412 6.95344C18.013 6.95344 18.6328 7.12938 19.2006 7.48125C19.7684 7.82912 20.2222 8.35493 20.562 9.05865C20.902 9.75842 21.0719 10.6361 21.0719 11.6917C21.0719 12.7193 20.9059 13.587 20.574 14.2948C20.2462 14.9985 19.7983 15.5323 19.2305 15.8962C18.6668 16.256 18.035 16.436 17.3352 16.436C16.8395 16.436 16.4176 16.354 16.0697 16.1901C15.7259 16.0261 15.444 15.8202 15.224 15.5722C15.0042 15.3203 14.8362 15.0664 14.7202 14.8106H14.6423V19.7408H12.0872ZM14.5883 11.6797C14.5883 12.2275 14.6642 12.7054 14.8162 13.1132C14.9682 13.521 15.188 13.8389 15.4759 14.0668C15.7638 14.2907 16.1137 14.4027 16.5256 14.4027C16.9414 14.4027 17.2932 14.2888 17.5812 14.0608C17.8691 13.8289 18.087 13.509 18.2349 13.1012C18.3869 12.6893 18.4628 12.2155 18.4628 11.6797C18.4628 11.1479 18.3888 10.6801 18.2409 10.2762C18.0929 9.87233 17.8751 9.55648 17.5872 9.32856C17.2992 9.10065 16.9454 8.98673 16.5256 8.98673C16.1097 8.98673 15.7578 9.09662 15.4699 9.31656C15.186 9.5365 14.9682 9.84842 14.8162 10.2522C14.6642 10.6561 14.5883 11.1319 14.5883 11.6797ZM22.7753 16.286V7.0734H25.3303V16.286H22.7753ZM24.0588 5.88584C23.6789 5.88584 23.3531 5.75988 23.0812 5.50798C22.8132 5.25207 22.6793 4.94618 22.6793 4.59031C22.6793 4.23844 22.8132 3.93655 23.0812 3.68464C23.3531 3.42874 23.6789 3.30078 24.0588 3.30078C24.4386 3.30078 24.7626 3.42874 25.0304 3.68464C25.3023 3.93655 25.4383 4.23844 25.4383 4.59031C25.4383 4.94618 25.3023 5.25207 25.0304 5.50798C24.7626 5.75988 24.4386 5.88584 24.0588 5.88584ZM29.9322 10.96V16.286H27.3771V7.0734H29.8122V8.69882H29.9202C30.1241 8.163 30.466 7.73915 30.9457 7.42727C31.4256 7.11138 32.0074 6.95344 32.6911 6.95344C33.3309 6.95344 33.8887 7.09339 34.3645 7.37329C34.8403 7.65319 35.2102 8.05304 35.4741 8.57282C35.738 9.08865 35.8699 9.70442 35.8699 10.4201V16.286H33.3149V10.876C33.3189 10.3122 33.175 9.87233 32.883 9.55648C32.5912 9.23659 32.1893 9.07665 31.6775 9.07665C31.3336 9.07665 31.0297 9.15062 30.7658 9.29856C30.5059 9.4465 30.302 9.66242 30.1541 9.9463C30.0101 10.2262 29.9361 10.5641 29.9322 10.96ZM56.4169 7.0734V8.27296H51.6426V7.0734H56.4169ZM53.0341 4.86621H54.4496V13.647C54.4496 14.0469 54.5076 14.3467 54.6236 14.5467C54.7435 14.7426 54.8955 14.8745 55.0794 14.9425C55.2673 15.0064 55.4652 15.0385 55.6732 15.0385C55.8291 15.0385 55.9571 15.0304 56.057 15.0145C56.157 14.9945 56.237 14.9785 56.2969 14.9665L56.5848 16.2381C56.4889 16.274 56.3549 16.31 56.183 16.346C56.0111 16.386 55.7932 16.406 55.5293 16.406C55.1294 16.406 54.7375 16.32 54.3537 16.1481C53.9738 15.9761 53.658 15.7142 53.406 15.3623C53.1582 15.0105 53.0341 14.5666 53.0341 14.0308V4.86621ZM58.5462 16.286V7.0734H59.9136V8.46489H60.0096C60.1776 8.00906 60.4814 7.63919 60.9213 7.3553C61.3611 7.0714 61.8569 6.92945 62.4087 6.92945C62.5127 6.92945 62.6426 6.93145 62.7986 6.93545C62.9545 6.93945 63.0725 6.94545 63.1524 6.95344V8.39291C63.1044 8.38092 62.9945 8.36292 62.8226 8.33894C62.6546 8.31094 62.4767 8.29695 62.2888 8.29695C61.8409 8.29695 61.4411 8.39092 61.0892 8.57882C60.7413 8.76276 60.4655 9.0187 60.2615 9.34656C60.0616 9.67048 59.9616 10.0403 59.9616 10.4561V16.286H58.5462ZM64.8303 16.286V7.0734H66.2458V16.286H64.8303ZM65.55 5.53797C65.2741 5.53797 65.0363 5.444 64.8363 5.25607C64.6404 5.06813 64.5425 4.84222 64.5425 4.57832C64.5425 4.31441 64.6404 4.0885 64.8363 3.90057C65.0363 3.71263 65.2741 3.61867 65.55 3.61867C65.826 3.61867 66.0618 3.71263 66.2578 3.90057C66.4577 4.0885 66.5577 4.31441 66.5577 4.57832C66.5577 4.84222 66.4577 5.06813 66.2578 5.25607C66.0618 5.444 65.826 5.53797 65.55 5.53797ZM68.8384 19.7408V7.0734H70.2059V8.53686H70.3738C70.4778 8.37692 70.6217 8.173 70.8056 7.92508C70.9936 7.67318 71.2614 7.44926 71.6093 7.25333C71.9612 7.0534 72.437 6.95344 73.0368 6.95344C73.8126 6.95344 74.4963 7.14737 75.0881 7.53523C75.6798 7.92309 76.1417 8.47288 76.4735 9.18465C76.8054 9.89633 76.9714 10.7361 76.9714 11.7037C76.9714 12.6793 76.8054 13.525 76.4735 14.2408C76.1417 14.9525 75.6818 15.5043 75.0941 15.8962C74.5062 16.284 73.8285 16.478 73.0608 16.478C72.4691 16.478 71.9952 16.38 71.6394 16.1841C71.2835 15.9841 71.0095 15.7582 70.8176 15.5063C70.6257 15.2504 70.4778 15.0385 70.3738 14.8705H70.2539V19.7408H68.8384ZM70.2299 11.6797C70.2299 12.3754 70.3318 12.9892 70.5357 13.521C70.7397 14.0488 71.0375 14.4627 71.4294 14.7626C71.8212 15.0585 72.3011 15.2064 72.8688 15.2064C73.4607 15.2064 73.9545 15.0505 74.3503 14.7386C74.7502 14.4227 75.0501 13.9989 75.25 13.467C75.4539 12.9312 75.5559 12.3355 75.5559 11.6797C75.5559 11.032 75.4559 10.4482 75.256 9.92839C75.06 9.4045 74.7622 8.99068 74.3623 8.68682C73.9665 8.37892 73.4687 8.22497 72.8688 8.22497C72.2931 8.22497 71.8092 8.37092 71.4174 8.66282C71.0256 8.95073 70.7297 9.35453 70.5297 9.87439C70.3298 10.3902 70.2299 10.9919 70.2299 11.6797Z" fill="#0F0F0F"/>
<path d="M39.2338 11.1762C40.9198 10.0422 40.9557 7.57362 39.3031 6.39121L38.5489 5.85158C37.5508 5.13747 37.3879 3.71757 38.1983 2.79599C38.8675 2.03497 39.7311 1.47029 40.6966 1.16243L40.7414 1.14816C42.0793 0.721551 43.5058 0.654112 44.878 0.952603L45.3013 1.04468L47.7607 6.20664L46.5274 5.24452C45.2586 4.25464 43.4973 4.19266 42.162 5.09091L41.9914 5.20566C40.9623 5.89806 40.3956 7.09914 40.5158 8.33377L40.5771 8.96369C40.7287 10.5224 41.9226 11.7774 43.4718 12.0068L44.1906 12.1133C45.1381 12.2535 45.8337 13.0762 45.8145 14.0338C45.8023 14.6417 45.4948 15.2111 44.9963 15.5593C44.1056 16.1816 42.8666 15.9599 42.2607 15.0579L41.9787 14.6381C41.5231 13.9599 40.5814 13.8239 39.9525 14.3454L39.2733 14.9087L39.4825 15.2949C40.7215 17.5817 43.5258 18.5099 45.8844 17.4139C47.1146 16.8423 47.9246 15.6337 47.9857 14.2787L48.0047 13.8555C48.0653 12.5128 47.2429 11.2877 45.9772 10.8353L43.892 10.09C43.2458 9.85906 42.781 9.28881 42.6851 8.60935L42.6486 8.35017C42.5488 7.64321 42.9544 6.96205 43.6234 6.71273C44.1092 6.5317 44.6536 6.61061 45.0681 6.92207L45.1717 6.99998C46.0803 7.68284 47.3907 7.28129 47.7607 6.20664L45.3013 1.04468L45.4828 1.08413C48.3974 1.71816 50.6049 4.10667 51.0076 7.06221L51.0988 8.48277C51.1437 9.18286 51.132 9.88546 51.064 10.5837C50.8774 12.4977 50.2069 14.3327 49.1156 15.9161L44.3113 22.8872C44.107 23.1837 43.676 23.203 43.446 22.9259L37.7542 16.0702C36.7719 14.5697 37.1788 12.5584 38.6668 11.5576L39.2338 11.1762Z" fill="#0F0F0F"/>
</svg>
