<svg width="137" height="42" viewBox="0 0 137 42" fill="none" xmlns="http://www.w3.org/2000/svg">
<path d="M13.5791 13.1871C13.4948 12.3405 13.1331 11.6827 12.494 11.2139C11.8549 10.745 10.9876 10.5106 9.89198 10.5106C9.14753 10.5106 8.51897 10.6156 8.00629 10.8255C7.49361 11.0284 7.10032 11.3118 6.82642 11.6757C6.55954 12.0396 6.4261 12.4524 6.4261 12.9142C6.41205 13.2991 6.49282 13.635 6.66839 13.9219C6.85099 14.2088 7.10032 14.4572 7.41635 14.6671C7.73238 14.87 8.09759 15.0485 8.51194 15.2024C8.92632 15.3494 9.36876 15.4753 9.83931 15.5803L11.7777 16.0421C12.7188 16.252 13.5826 16.5319 14.3692 16.8818C15.1558 17.2316 15.837 17.662 16.4129 18.1729C16.9888 18.6836 17.4347 19.2854 17.7508 19.9781C18.0739 20.6708 18.2389 21.4651 18.246 22.3607C18.2389 23.6762 17.9018 24.8168 17.2346 25.7825C16.5744 26.7412 15.6194 27.4864 14.3692 28.0183C13.1261 28.543 11.6267 28.8055 9.87091 28.8055C8.12919 28.8055 6.6122 28.5395 5.31996 28.0078C4.03475 27.4759 3.03045 26.6887 2.30708 25.646C1.59072 24.5965 1.21499 23.2984 1.17987 21.752H5.59387C5.64303 22.4728 5.85021 23.0746 6.2154 23.5573C6.58763 24.0332 7.08276 24.3935 7.70078 24.6385C8.32583 24.8764 9.03165 24.9953 9.81824 24.9953C10.5908 24.9953 11.2615 24.8834 11.8304 24.6595C12.4062 24.4355 12.8522 24.1241 13.1682 23.7253C13.4843 23.3264 13.6423 22.868 13.6423 22.3502C13.6423 21.8675 13.4983 21.4616 13.2104 21.1327C12.9295 20.8039 12.5151 20.524 11.9673 20.293C11.4265 20.0621 10.7628 19.8521 9.97626 19.6633L7.62704 19.0754C5.80807 18.6346 4.37185 17.9453 3.31839 17.0077C2.26494 16.07 1.74172 14.8071 1.74873 13.2186C1.74172 11.9171 2.08935 10.78 2.79167 9.80739C3.50099 8.83474 4.47369 8.07552 5.70975 7.52971C6.94581 6.98392 8.35042 6.71101 9.92358 6.71101C11.5248 6.71101 12.9224 6.98392 14.1164 7.52971C15.3173 8.07552 16.2514 8.83474 16.9186 9.80739C17.5857 10.78 17.9298 11.9066 17.9509 13.1871H13.5791ZM21.2299 34.5469V12.3789H25.6544V15.0869H25.8545C26.0512 14.6531 26.3356 14.2123 26.7078 13.7644C27.087 13.3096 27.5787 12.9317 28.1827 12.6309C28.7936 12.323 29.5521 12.169 30.4581 12.169C31.638 12.169 32.7266 12.4769 33.7238 13.0927C34.7212 13.7014 35.5182 14.6216 36.1152 15.8531C36.7122 17.0777 37.0106 18.6137 37.0106 20.461C37.0106 22.2593 36.7192 23.7778 36.1362 25.0163C35.5604 26.2478 34.7738 27.182 33.7765 27.8188C32.7864 28.4485 31.6767 28.7635 30.4476 28.7635C29.5768 28.7635 28.8358 28.6199 28.2249 28.3331C27.6209 28.0462 27.1257 27.6859 26.7394 27.2519C26.3532 26.8111 26.0582 26.3668 25.8545 25.919H25.7176V34.5469H21.2299ZM25.6228 20.44C25.6228 21.3986 25.7561 22.2349 26.0231 22.9486C26.29 23.6623 26.6762 24.2186 27.1819 24.6175C27.6875 25.0093 28.3021 25.2052 29.0255 25.2052C29.7558 25.2052 30.3738 25.0058 30.8795 24.607C31.3852 24.2011 31.7679 23.6413 32.0277 22.9276C32.2947 22.2068 32.428 21.3776 32.428 20.44C32.428 19.5094 32.2981 18.6907 32.0383 17.9839C31.7784 17.2771 31.3957 16.7243 30.89 16.3255C30.3843 15.9266 29.7629 15.7273 29.0255 15.7273C28.295 15.7273 27.677 15.9196 27.1713 16.3045C26.6727 16.6894 26.29 17.2352 26.0231 17.9419C25.7561 18.6487 25.6228 19.4813 25.6228 20.44ZM40.0025 28.501V12.3789H44.4902V28.501H40.0025ZM42.2568 10.3007C41.5897 10.3007 41.0173 10.0803 40.5398 9.63945C40.0692 9.19161 39.8339 8.6563 39.8339 8.03353C39.8339 7.41775 40.0692 6.88945 40.5398 6.44862C41.0173 6.00078 41.5897 5.77686 42.2568 5.77686C42.9241 5.77686 43.493 6.00078 43.9634 6.44862C44.441 6.88945 44.6799 7.41775 44.6799 8.03353C44.6799 8.6563 44.441 9.19161 43.9634 9.63945C43.493 10.0803 42.9241 10.3007 42.2568 10.3007ZM52.5729 19.1804V28.501H48.0852V12.3789H52.3622V15.2234H52.5518C52.91 14.2857 53.5105 13.544 54.3532 12.9982C55.1959 12.4454 56.2179 12.169 57.4188 12.169C58.5425 12.169 59.5223 12.4139 60.358 12.9037C61.1937 13.3936 61.8433 14.0933 62.3068 15.0029C62.7704 15.9056 63.0021 16.9832 63.0021 18.2357V28.501H58.5144V19.0334C58.5214 18.0469 58.2687 17.2771 57.7559 16.7243C57.2433 16.1645 56.5373 15.8846 55.6384 15.8846C55.0344 15.8846 54.5007 16.0141 54.0372 16.273C53.5807 16.5319 53.2225 16.9097 52.9627 17.4065C52.7098 17.8964 52.5798 18.4877 52.5729 19.1804ZM99.091 12.3789V14.4782H90.7054V12.3789H99.091ZM93.1495 8.51635H95.6356V23.8828C95.6356 24.5825 95.7376 25.1072 95.9413 25.4572C96.1519 25.8001 96.4188 26.0309 96.7419 26.1499C97.0719 26.2618 97.4195 26.3179 97.7847 26.3179C98.0586 26.3179 98.2833 26.3038 98.4589 26.2759C98.6346 26.2409 98.775 26.2129 98.8803 26.1919L99.386 28.4171C99.2175 28.48 98.9822 28.543 98.6802 28.606C98.3782 28.676 97.9955 28.711 97.532 28.711C96.8296 28.711 96.1413 28.5605 95.4672 28.2596C94.7999 27.9587 94.2452 27.5003 93.8027 26.8846C93.3673 26.2688 93.1495 25.4921 93.1495 24.5545V8.51635ZM102.831 28.501V12.3789H105.233V14.814H105.401C105.696 14.0163 106.23 13.3691 107.003 12.8723C107.775 12.3754 108.646 12.127 109.615 12.127C109.798 12.127 110.026 12.1305 110.3 12.1375C110.574 12.1445 110.781 12.155 110.921 12.169V14.6881C110.837 14.6671 110.644 14.6356 110.342 14.5936C110.047 14.5446 109.734 14.5201 109.404 14.5201C108.618 14.5201 107.915 14.6846 107.297 15.0134C106.686 15.3353 106.202 15.7832 105.844 16.357C105.493 16.9238 105.317 17.5711 105.317 18.2987V28.501H102.831ZM113.868 28.501V12.3789H116.355V28.501H113.868ZM115.133 9.69193C114.648 9.69193 114.23 9.52749 113.879 9.19861C113.535 8.86972 113.363 8.47437 113.363 8.01255C113.363 7.55071 113.535 7.15536 113.879 6.82648C114.23 6.49759 114.648 6.33316 115.133 6.33316C115.617 6.33316 116.031 6.49759 116.376 6.82648C116.727 7.15536 116.902 7.55071 116.902 8.01255C116.902 8.47437 116.727 8.86972 116.376 9.19861C116.031 9.52749 115.617 9.69193 115.133 9.69193ZM120.908 34.5469V12.3789H123.31V14.94H123.605C123.788 14.6601 124.04 14.3032 124.363 13.8694C124.694 13.4286 125.164 13.0367 125.775 12.6938C126.393 12.3439 127.229 12.169 128.282 12.169C129.645 12.169 130.846 12.5084 131.885 13.1871C132.925 13.8659 133.736 14.828 134.319 16.0736C134.902 17.3191 135.193 18.7886 135.193 20.482C135.193 22.1893 134.902 23.6693 134.319 24.9218C133.736 26.1674 132.928 27.133 131.896 27.8188C130.863 28.4975 129.673 28.837 128.325 28.837C127.285 28.837 126.453 28.6655 125.828 28.3226C125.203 27.9727 124.722 27.5774 124.385 27.1366C124.047 26.6887 123.788 26.3179 123.605 26.0239H123.394V34.5469H120.908ZM123.352 20.44C123.352 21.6575 123.531 22.7317 123.889 23.6623C124.248 24.586 124.771 25.3102 125.459 25.835C126.147 26.3528 126.99 26.6117 127.987 26.6117C129.027 26.6117 129.894 26.3389 130.589 25.793C131.292 25.2403 131.819 24.4985 132.17 23.5678C132.528 22.6301 132.707 21.5876 132.707 20.44C132.707 19.3064 132.531 18.2848 132.18 17.3752C131.836 16.4584 131.313 15.7342 130.611 15.2024C129.915 14.6636 129.041 14.3942 127.987 14.3942C126.976 14.3942 126.126 14.6496 125.438 15.1604C124.75 15.6643 124.23 16.3709 123.879 17.2807C123.528 18.1834 123.352 19.2364 123.352 20.44Z" fill="#6932E2"/>
<path d="M68.9099 19.5616C71.8714 17.5771 71.9343 13.257 69.0317 11.1878L67.7071 10.2434C65.9541 8.99375 65.6679 6.50893 67.0913 4.89616C68.2666 3.56437 69.7834 2.57618 71.4794 2.03743L71.558 2.01245C73.9079 1.26589 76.4135 1.14787 78.8236 1.67023L79.567 1.83136L83.8868 10.8648L81.7206 9.18109C79.4921 7.4488 76.3984 7.34033 74.0532 8.91226L73.7536 9.11308C71.9459 10.3248 70.9506 12.4267 71.1617 14.5873L71.2694 15.6896C71.5357 18.4174 73.6327 20.6137 76.3537 21.0151L77.6162 21.2014C79.2804 21.4468 80.5021 22.8865 80.4684 24.5623C80.447 25.6262 79.907 26.6225 79.0314 27.232C77.4669 28.321 75.2907 27.9329 74.2264 26.3545L73.7311 25.6198C72.931 24.433 71.2769 24.1949 70.1723 25.1077L68.9793 26.0933L69.3468 26.7692C71.523 30.7712 76.4486 32.3956 80.5912 30.4775C82.7519 29.4772 84.1746 27.3622 84.2819 24.9908L84.3154 24.2503C84.4218 21.9005 82.9773 19.7566 80.7541 18.9649L77.0917 17.6606C75.9567 17.2565 75.1404 16.2586 74.972 15.0695L74.9078 14.616C74.7326 13.3788 75.4448 12.1868 76.6199 11.7505C77.4732 11.4337 78.4295 11.5717 79.1574 12.1168L79.3394 12.2531C80.9352 13.4481 83.2368 12.7454 83.8868 10.8648L79.567 1.83136L79.8858 1.9004C85.005 3.00995 88.8823 7.18985 89.5896 12.362L89.7498 14.848C89.8286 16.0732 89.8082 17.3027 89.6886 18.5246C89.3609 21.8741 88.1833 25.0855 86.2665 27.8564L77.8282 40.0558C77.4693 40.5746 76.7123 40.6084 76.3084 40.1236L66.3112 28.126C64.5859 25.5002 65.3005 21.9803 67.9142 20.2289L68.9099 19.5616Z" fill="#9E76F8"/>
</svg>
