<svg width="235" height="129" viewBox="0 0 235 129" fill="none" xmlns="http://www.w3.org/2000/svg">
<g clip-path="url(#clip0_678_38378)">
<path fill-rule="evenodd" clip-rule="evenodd" d="M39.6953 33.4182C39.6953 36.5544 40.2845 39.7305 43.3037 41.2603C47.9916 43.6354 54.3822 40.7941 56.8977 36.7904L60.1707 29.833C62.1718 26.3917 73.7706 7.39481 74.579 3.92163H84.202C83.4667 12.7657 72.4841 31.3754 78.318 38.1036C82.1349 42.5058 88.045 40.512 90.4572 36.0671C91.6261 33.9133 93.7642 17.9326 94.246 14.5763C94.8326 10.4912 95.6295 7.54326 95.6295 3.31961H107.057C107.057 9.20477 105.357 30.5803 106.807 34.8649C110.02 44.3606 122.093 39.3358 122.093 31.6124C122.093 26.9336 120.978 21.8196 120.393 17.663L118.484 3.31961C132.065 3.31961 128.986 -1.21033 134.128 11.7411C136.468 17.6342 140.151 26.5896 141.588 32.5676C142.128 34.8163 142.703 35.9079 144.158 37.2191C150.734 43.1462 160.383 35.6842 156.929 27.4879L143.143 2.7176C157.462 2.7176 155.44 -0.344854 159.622 6.0901C163.767 12.4699 173.467 24.4599 175.969 30.6628C181.505 44.3888 194.266 38.7896 194.266 30.4085C194.266 27.7684 190.822 24.2157 189.007 22.4288L175.781 7.976C165.321 -2.43996 170.124 0.350499 157.58 0.311423C152.968 0.297089 148.355 0.324903 143.743 0.307839C138.5 0.288387 135.758 0.932889 130.515 0.913436C125.899 0.896373 121.282 0.916508 116.666 0.897567C112.169 0.879138 109.142 1.52023 104.05 1.51391C98.7046 1.50743 67.259 1.78728 64.063 3.02782C62.0047 3.82692 53.3263 14.9485 51.3826 17.4251C49.5785 19.7241 39.6953 31.5091 39.6953 33.4182ZM98.6367 40.6421C100.175 40.6421 105.138 38.548 105.253 33.4182H104.05C102.717 39.1437 97.5572 40.3825 94.255 37.202C92.8149 35.8149 93.0604 35.2168 91.4195 34.6223C91.7282 38.3357 94.8511 40.6421 98.6367 40.6421Z" fill="#9E76F8"/>
<path fill-rule="evenodd" clip-rule="evenodd" d="M9.01562 126.724V127.928C13.6166 127.928 18.2816 127.847 22.8727 127.904C26.1386 127.945 26.4412 128.484 29.4655 128.57C32.7162 128.663 33.3509 128.073 36.0775 127.925C45.1224 127.436 55.7302 127.928 64.9498 127.928C111.47 127.928 159.336 126.724 206.289 126.724C216.493 126.724 224.634 126.122 234.557 126.122V124.316C196.29 124.316 159.854 124.918 121.485 124.918C111.48 124.918 103.576 125.52 93.8191 125.52C84.1959 125.52 74.5728 125.52 64.9498 125.52C54.9603 125.52 46.8646 126.122 37.2834 126.122C28.8072 126.122 16.2175 125.045 9.01562 126.724Z" fill="#9E76F8"/>
<path fill-rule="evenodd" clip-rule="evenodd" d="M146.751 124.315C148.327 123.159 148.023 125.017 147.959 117.698L146.751 50.874C149.8 50.874 150.028 50.272 153.367 50.272H179.83L179.229 123.111C182.996 122.104 180.122 117.283 181.197 109.43C182.046 103.236 181.635 59.7049 181.635 51.4761C181.635 49.8502 181.347 49.8162 181.033 48.4662C172.757 47.7768 176.031 48.4856 167.802 48.4668L146.342 48.6586C143.226 49.5756 144.315 54.689 144.324 61.1282C144.329 64.4361 144.802 65.0007 144.949 67.7263C145.192 72.2285 144.962 77.5892 144.945 82.1786L146.751 124.315Z" fill="#0F0F0F"/>
<path fill-rule="evenodd" clip-rule="evenodd" d="M57.1328 50.2738V52.0798C63.7928 52.0798 68.1419 51.4696 74.5742 51.4775C80.5937 51.4848 86.6127 51.4672 92.632 51.4918C96.4811 51.5077 97.5403 50.8947 101.014 50.8517L137.125 50.8758C137.125 60.5111 136.276 101.231 137.726 107.461H138.929C138.929 90.2756 139.513 72.1302 138.37 55.047C137.891 47.8809 141.785 49.0699 123.292 49.0699C117.678 49.0699 112.065 49.0701 106.451 49.0699C100.238 49.0696 95.8459 49.7049 90.216 49.6758C78.4203 49.6151 68.5021 50.2738 57.1328 50.2738Z" fill="#0F0F0F"/>
<path fill-rule="evenodd" clip-rule="evenodd" d="M73.3746 79.7701C75.4873 80.748 112.569 74.9543 118.483 74.9543C119.451 79.1135 120.287 85.5598 120.287 90.6056L97.9832 93.5649C94.4911 93.9645 76.7801 95.8565 75.179 96.6254L71.5703 80.3721C71.5703 84.6739 71.8992 87.5367 72.5014 91.4798C73.1794 95.9207 72.6466 98.7601 77.1964 98.1525L119.704 92.4296C123.493 91.3854 121.972 89.168 121.437 83.4359C121.116 80.0033 120.413 76.2744 119.686 73.1484C114 73.1484 86.2667 77.0172 78.2739 78.0519C76.0083 78.3452 74.5157 78.2115 73.3746 79.7701Z" fill="#9E76F8"/>
<path fill-rule="evenodd" clip-rule="evenodd" d="M62.5543 105.056H63.7573C63.7573 96.8121 62.2095 89.1861 61.952 80.978C61.6999 72.9346 60.1486 64.6424 60.1486 56.2961C66.6953 56.2961 70.9696 55.6924 77.5905 55.6941L131.72 55.0921C130.895 51.9998 124.747 53.3024 117.285 53.2855C111.393 53.2721 107.72 53.8918 101.648 53.8882C96.2353 53.8852 90.8223 53.8887 85.4093 53.8882C79.1428 53.8875 75.0175 54.514 69.1722 54.492C55.1492 54.4394 57.773 50.9541 59.5868 74.9177C59.9154 79.2598 60.4391 85.0035 61.0977 89.6587L62.5543 105.056Z" fill="#0F0F0F"/>
<path fill-rule="evenodd" clip-rule="evenodd" d="M137.132 108.665V107.461C132.159 106.301 107.015 108.073 98.6392 108.062L69.1448 108.641C65.5782 108.685 63.7446 109.267 59.5458 109.267L54.1328 50.875L57.2318 101.951C58.4351 113.416 56.1616 110.585 66.1374 110.447C78.5907 110.274 89.5189 109.868 101.647 109.869L128.112 109.268C131.953 109.283 134.3 108.728 137.132 108.665Z" fill="#0F0F0F"/>
<path fill-rule="evenodd" clip-rule="evenodd" d="M132.315 101.445C120.87 101.445 109.995 102.684 98.6199 102.635C94.9341 102.619 93.9697 103.177 90.8347 103.271C87.9818 103.356 84.6677 103.026 81.8814 103.339L64.9531 104.455C66.1839 106.136 67.2542 106.246 72.6067 105.495L99.8447 104.463C103.71 104.485 105.039 103.929 108.237 103.833C111.387 103.739 114.728 103.878 117.901 103.874C121.628 103.868 122.563 103.224 126.281 103.231C136.56 103.25 134.119 108.316 134.119 71.3462C134.119 65.4907 133.518 62.0614 133.518 56.2969L132.315 101.445Z" fill="#0F0F0F"/>
<path fill-rule="evenodd" clip-rule="evenodd" d="M217.727 44.8567V121.308C217.727 122.973 218.191 122.755 219.531 123.113C219.531 112.612 220.754 46.8562 218.93 43.0508C217.916 43.7559 217.727 43.1371 217.727 44.8567Z" fill="#9E76F8"/>
<path fill-rule="evenodd" clip-rule="evenodd" d="M187.055 123.718C189.389 123.094 188.78 123.592 188.93 120.779C189.005 119.379 188.822 117.364 188.836 115.869C188.868 112.278 189.5 110.497 189.463 106.263L190.917 66.7844C191.807 60.8975 191.265 48.5917 191.265 41.2474C191.265 39.5522 191.005 40.1328 190.062 39.4414C188.582 42.5274 189.407 74.5411 188.827 81.548C188.549 84.9132 188.241 87.5528 188.259 91.815C188.278 96.1907 187.677 98.3607 187.632 102.023C187.538 109.756 187.055 115.823 187.055 123.718Z" fill="#0F0F0F"/>
<path fill-rule="evenodd" clip-rule="evenodd" d="M175.019 119.501L157.557 120.083C154.371 120.038 153.499 119.483 152.164 121.307C157.431 122.535 164.762 121.915 169.696 121.397C177.203 120.608 177.425 127.286 177.425 98.4316L176.823 55.6914C175.247 56.8471 175.551 54.9897 175.615 62.3081L175.62 103.248C175.624 109.488 175.019 113.341 175.019 119.501Z" fill="#0F0F0F"/>
<path fill-rule="evenodd" clip-rule="evenodd" d="M27.0703 82.178C27.0703 87.2138 29.2645 100.085 33.0848 102.645C32.7765 98.9386 26.8248 88.15 29.4761 76.7602C37.5961 86.1103 39.5802 100.822 42.1063 111.675C43.9024 110.377 42.7949 111.738 42.9231 110.166C43.5444 102.547 37.6568 87.2125 34.2893 80.9724C33.1378 78.8389 30.4918 73.7412 28.2731 73.1484C27.7045 75.5916 27.0703 79.2123 27.0703 82.178Z" fill="#9E76F8"/>
<path fill-rule="evenodd" clip-rule="evenodd" d="M149.76 77.9635H157.579V97.2268C148.21 97.2268 149.76 95.599 149.76 110.47C149.76 114.83 150.361 116.499 150.361 120.704C153.191 119.679 151.564 119.952 151.564 117.694V99.0326C161.811 99.0326 159.383 102.521 159.383 78.5655C159.383 75.72 154.714 76.7595 149.76 76.7595V77.9635Z" fill="#0F0F0F"/>
<path fill-rule="evenodd" clip-rule="evenodd" d="M17.4427 103.853C17.0047 102.211 6.81548 90.5071 6.61669 81.5798C8.96431 82.1272 15.0038 85.3661 17.0918 86.7469C18.8369 87.9009 20.1693 88.7413 21.7473 89.9148L24.8021 92.216C29.0287 94.3551 22.8889 88.8138 22.1754 88.2807C18.5365 85.5616 8.43461 79.2661 4.21094 79.1719C4.81668 86.4575 8.77678 93.5207 12.5023 99.1661C13.8278 101.175 14.9554 103.188 17.4427 103.853Z" fill="#9E76F8"/>
<path fill-rule="evenodd" clip-rule="evenodd" d="M0 108.065C0.599436 110.312 0.61836 109.787 2.57403 110.907C6.13722 112.946 10.5875 115.792 15.036 115.891V114.687C12.0216 113.984 6.35664 111.657 3.72124 109.758L2.40576 108.667C10.0753 108.028 12.952 106.119 23.4704 108.653C24.9746 109.016 26.3521 109.363 27.6656 109.872C29.1904 110.463 29.8056 110.903 31.8765 111.075C31.417 109.353 31.8494 110.127 30.6126 109.33C25.4914 106.029 8.66454 103.904 0 108.065Z" fill="#9E76F8"/>
<path fill-rule="evenodd" clip-rule="evenodd" d="M210.499 18.3713C210.607 18.2779 210.776 17.9923 210.825 18.0957C210.874 18.1991 211.084 17.8742 211.152 17.8208L213.988 15.8431C215.412 14.9602 216.423 14.4229 217.717 13.5555C219.514 14.5075 221.842 16.1248 223.731 16.5654C222.339 18.4675 220.95 17.7945 217.707 17.7594C214.174 17.721 213.565 18.3713 210.499 18.3713ZM207.492 20.1771C211.899 20.1771 214.836 19.8889 218.351 19.6075C222.513 19.2745 225.97 20.4624 227.941 17.7692C227.04 16.5386 219.175 11.542 216.906 12.1392C216.894 12.1421 207.807 16.389 207.492 20.1771Z" fill="#9E76F8"/>
<path fill-rule="evenodd" clip-rule="evenodd" d="M149.156 55.6926L150.961 75.5578V55.6926H175.018C174.66 54.3512 174.878 53.8867 173.214 53.8867H150.961C149.575 53.8867 149.156 54.3056 149.156 55.6926Z" fill="#0F0F0F"/>
<path fill-rule="evenodd" clip-rule="evenodd" d="M54.1278 124.317L47 65.8359C47.6395 71.7859 48.4529 79.5887 48.719 85.7867C49.1204 95.1317 51.1783 110.172 52.1842 120.243C52.5197 123.602 51.4426 123.6 54.1278 124.317Z" fill="#0F0F0F"/>
<path fill-rule="evenodd" clip-rule="evenodd" d="M105.25 80.9782C105.25 87.9099 105.521 88.8353 107.656 89.4059L107.255 82.7675C106.959 83.1102 110.923 87.4676 113.67 88.2018C114.643 86.1719 114.473 80.0407 112.467 78.5703C111.836 79.887 111.824 79.4677 111.793 81.5985L112.467 84.5899C111.502 85.9419 112.425 85.2708 110.422 83.627C107.9 81.5565 105.25 78.3906 105.25 80.9782Z" fill="#9E76F8"/>
<path fill-rule="evenodd" clip-rule="evenodd" d="M6.61719 122.514C10.9387 123.522 17.2357 124.749 21.6534 123.719L9.62442 121.912C10.162 121.445 9.43842 121.691 11.0543 120.936C15.244 118.978 23.6897 118.743 25.8634 117.699C24.2407 115.482 23.5676 116.624 20.976 117.009C17.5086 117.524 7.58454 118.889 6.61719 122.514Z" fill="#9E76F8"/>
<path fill-rule="evenodd" clip-rule="evenodd" d="M131.717 38.2351C128.405 38.2351 124.33 38.0165 123.898 32.8173H122.695C122.828 38.7712 128.113 40.7907 131.511 40.4179C134.789 40.0584 137.5 38.0199 139.099 35.3899C139.952 33.9864 140.09 33.7161 140.137 31.6133C137.423 32.3387 138.493 33.318 136.907 35.6042C135.976 36.9471 133.744 38.2351 131.717 38.2351Z" fill="#9E76F8"/>
<path fill-rule="evenodd" clip-rule="evenodd" d="M98.5398 86.2905C98.7088 86.3221 98.8772 86.3924 98.9132 86.4924C98.9265 86.5291 101.519 87.319 102.249 84.5848C99.7873 84.6398 99.6325 84.9447 98.0386 85.7889C97.9035 84.1634 97.7566 84.1513 97.4371 82.779C100.293 82.113 100.993 82.8223 101.647 80.3711C99.2983 80.3711 97.1786 80.8327 95.6328 81.5749C95.8703 84.432 96.8191 88.551 97.4371 91.2067C105.15 91.2067 106.665 87.9355 101.745 88.8088C100.277 89.0696 100.31 89.2615 98.64 89.4008C98.64 89.0655 98.652 88.4181 98.6 88.2374C98.2936 87.1722 98.4038 87.5688 98.0386 86.9927L98.5398 86.2905Z" fill="#9E76F8"/>
<path fill-rule="evenodd" clip-rule="evenodd" d="M78.7909 84.5864C86.1486 84.5864 83.4826 91.2082 80.5953 91.2082C76.8475 91.2082 78.519 86.3566 78.7909 85.1884C72.5536 86.8554 79.287 96.9511 84.0898 91.0913C88.8487 85.2854 78.9278 79.623 78.7909 84.5864Z" fill="#9E76F8"/>
<path fill-rule="evenodd" clip-rule="evenodd" d="M88.4056 83.3846C95.8534 83.3846 90.0278 87.0257 89.6084 87.5983C91.7168 88.5744 92.0893 87.5533 93.8186 86.3945C93.8186 82.3135 93.6686 84.0513 92.0141 81.5785C87.9935 81.5785 87.8178 81.1827 84.7969 82.7826C86.0827 84.5391 85.1818 83.5182 87.2026 84.5884C87.2026 87.3176 87.8837 89.5706 88.4056 91.8123H89.6084C89.6084 87.4323 88.8523 86.8702 88.4056 83.3846Z" fill="#9E76F8"/>
<path fill-rule="evenodd" clip-rule="evenodd" d="M166.6 38.8374C173.149 38.8374 176.095 33.6148 175.02 31.0117C172.718 31.9417 174.329 32.6273 172.193 34.8037C165.34 41.7862 160.142 31.5687 159.383 31.0117C158.058 34.2208 162.607 38.8374 166.6 38.8374Z" fill="#9E76F8"/>
<path fill-rule="evenodd" clip-rule="evenodd" d="M67.9668 41.2464C65.7025 41.2464 63.8696 40.5638 62.3983 39.5961C61.0243 38.6924 61.3911 38.9371 60.5292 37.8549C58.786 35.666 60.3722 36.5635 58.3438 35.8286C58.8421 41.8231 67.8952 45.5057 72.96 40.8261C74.4702 39.4306 75.5787 37.7146 75.7857 35.2266C74.4508 35.7102 74.8456 35.5405 74.0709 36.5202C73.1902 37.6339 73.6152 37.5658 72.6358 38.6956C71.8246 39.6316 69.4186 41.2464 67.9668 41.2464Z" fill="#9E76F8"/>
<path fill-rule="evenodd" clip-rule="evenodd" d="M75.1796 77.3655C76.7551 76.2103 76.9883 74.9588 77.9848 72.9496C79.8474 69.194 85.1785 59.6121 85.4041 56.8984C83.2188 57.4824 83.9988 57.274 81.9974 61.3144C81.0278 63.2718 80.2796 64.748 79.3896 66.53C78.4071 68.4979 74.3238 75.2921 75.1796 77.3655Z" fill="#9E76F8"/>
<path fill-rule="evenodd" clip-rule="evenodd" d="M223.736 38.837L225.3 28.9649C225.625 26.972 225.413 25.7113 225.576 23.7682C225.835 20.6838 227.305 20.9691 224.337 20.1758L222.53 35.2773C222.067 38.5858 221.56 38.2556 223.736 38.837Z" fill="#9E76F8"/>
<path fill-rule="evenodd" clip-rule="evenodd" d="M214.116 38.8326C214.053 35.9918 213.081 32.4461 212.558 29.5576C211.885 25.8496 212.222 22.4718 209.906 20.7734C209.906 25.1464 210.13 26.8487 210.85 30.6647C211.964 36.5729 211.726 38.1938 214.116 38.8326Z" fill="#9E76F8"/>
<path fill-rule="evenodd" clip-rule="evenodd" d="M115.474 71.9482C114.787 68.9975 106.997 57.2461 103.445 56.2969C103.886 57.9495 104.961 58.9534 106.018 60.3436C107.202 61.9008 107.91 62.8627 109.113 64.4701C111.832 68.1066 113.026 71.294 115.474 71.9482Z" fill="#9E76F8"/>
<path fill-rule="evenodd" clip-rule="evenodd" d="M39.6925 88.7986L42.0983 77.963L43.4924 80.1796C44.704 82.3739 43.141 80.7362 45.1055 82.1768C45.0373 79.1114 44.346 75.7145 41.4968 74.9531C40.3787 79.7564 39.7048 80.0551 38.9678 85.7476C38.6006 88.5837 37.6832 87.3251 39.6925 88.7986Z" fill="#9E76F8"/>
<path fill-rule="evenodd" clip-rule="evenodd" d="M217.727 38.2308C218.74 37.5257 218.93 38.1445 218.93 36.4248V22.5795C218.93 20.914 218.466 21.1316 217.125 20.7734C217.125 23.7832 217.131 26.7936 217.125 29.8033C217.112 36.1951 217.664 35.405 217.727 38.2308Z" fill="#9E76F8"/>
<path fill-rule="evenodd" clip-rule="evenodd" d="M212.914 41.2474C218.619 42.5777 219.42 41.6072 223.74 41.2474V39.4414H212.914V41.2474Z" fill="#9E76F8"/>
<path fill-rule="evenodd" clip-rule="evenodd" d="M216.516 6.93478V8.74082C216.516 10.4061 216.98 10.1885 218.32 10.5467V5.12891C216.98 5.48708 216.516 5.26951 216.516 6.93478Z" fill="#9E76F8"/>
</g>
<defs>
<clipPath id="clip0_678_38378">
<rect width="234.563" height="128.467" fill="white"/>
</clipPath>
</defs>
</svg>
