<svg width="173" height="155" viewBox="0 0 173 155" fill="none" xmlns="http://www.w3.org/2000/svg">
<g clip-path="url(#clip0_678_38337)">
<path fill-rule="evenodd" clip-rule="evenodd" d="M84.8915 97.9071V97.4522C84.8313 97.3613 84.7196 97.1257 84.7058 97.1828C84.6915 97.2421 84.5715 96.9513 84.5558 96.8767C84.423 96.247 84.4362 96.3009 84.4402 95.6329V95.1781C84.3796 95.0872 84.2673 94.8514 84.2535 94.9086C84.2391 94.9681 84.1183 94.6772 84.1026 94.6026C83.9688 93.9703 83.9825 94.0299 83.9869 93.3588L83.9837 92.4492C83.6662 91.9526 83.7238 92.4496 83.5656 91.4997C83.497 91.0874 83.5255 90.596 83.5255 90.1751C61.832 90.1751 20.8214 85.6353 4.53906 74.7109C4.71728 76.8573 7.36328 82.0082 8.28281 84.1498C9.32998 86.5891 8.97882 86.1923 11.5938 87.2C13.4553 87.9173 14.6742 88.3317 16.6242 88.9822C27.2267 92.5192 48.273 97.3683 59.5478 98.7352C67.7954 99.735 75.6507 99.7264 84.8874 99.7264L84.8915 97.9071Z" fill="#9E76F8"/>
<path fill-rule="evenodd" clip-rule="evenodd" d="M85.7969 91.5418C85.8566 91.6327 85.9671 91.6505 85.9809 91.8114C85.9952 91.979 86.1142 92.0428 86.13 92.1173C86.2601 92.7285 86.2508 92.7122 86.2508 93.3611C86.7114 93.8593 86.7165 92.5637 86.6957 94.7255V95.1804C86.9569 95.55 86.9076 95.3936 87.1875 96.0594L88.0666 99.2738C99.125 99.2738 121.428 95.8441 131.593 92.8535C140.605 90.202 146.163 88.2311 154.435 84.8114C156.802 83.8328 156.232 83.7384 157.2 81.215C158.33 78.273 160.017 74.9149 160.698 71.9844L153.138 75.7805C135.373 84.3264 104.885 89.7225 85.7969 89.7225V91.5418Z" fill="#9E76F8"/>
<path fill-rule="evenodd" clip-rule="evenodd" d="M56.7422 15.5911L89.4262 16.5007C89.4262 27.8847 88.9935 42.0108 89.8563 52.4558L89.8772 77.4503C89.8594 80.9108 90.3341 82.3775 90.3341 85.6342H91.2421C91.2421 62.0586 90.7881 39.9153 90.7881 16.5007C94.0795 16.5007 95.3474 16.0224 98.4944 16.0353C101.377 16.0471 104.259 16.0447 107.141 16.0566L123.018 14.2266C111.432 14.2266 101.393 14.7415 89.8741 14.6754C86.5829 14.6565 85.3388 15.1599 82.1736 15.1468L56.7422 15.5911Z" fill="#0F0F0F"/>
<path fill-rule="evenodd" clip-rule="evenodd" d="M15.4284 112.917C8.99826 112.917 3.17188 118.051 3.17188 124.287C3.17188 137.494 9.86465 142.044 20.1623 146.379C21.6421 147.002 22.7063 147.624 24.0534 147.938C24.0058 150.081 23.5534 149.455 24.0534 150.667C25.5522 150.266 26.3768 149.44 26.777 147.938C24.003 148.527 27.9689 148.184 20.0968 145.08C14.8428 143.009 10.4441 140.849 7.44281 135.927C2.18389 127.303 3.01901 114.281 15.8824 114.281C25.6013 114.281 28.5771 124.974 29.9547 126.562C29.9547 121.801 24.9504 116.322 21.191 114.42C20.0589 113.847 16.8726 112.917 15.4284 112.917ZM24.5074 116.101C24.786 103.569 41.6214 95.8208 48.6887 102.788C53.4419 107.474 50.6025 115.024 48.1125 119.739C50.0241 119.228 50.5816 117.321 51.2344 115.59C57.6305 98.6228 38.6086 94.0022 28.2424 105.288C26.5909 107.086 23.5994 111.604 23.5994 114.736C23.5994 116.017 23.7958 115.578 24.5074 116.101Z" fill="#9E76F8"/>
<path fill-rule="evenodd" clip-rule="evenodd" d="M89.881 145.21C89.881 148.68 90.335 150.282 90.335 153.852H49.0259C47.7476 153.852 48.1853 154.049 47.6641 154.762C61.8877 154.762 76.1113 154.762 90.335 154.762L129.217 153.694C129.266 153.684 130.085 153.452 130.269 153.384C131.36 152.978 130.713 153.245 131.19 152.942L91.2447 153.507L91.2429 127.927C91.2429 126.646 91.0465 127.085 90.335 126.562C90.335 133.369 89.881 138.513 89.881 145.21Z" fill="#0F0F0F"/>
<path fill-rule="evenodd" clip-rule="evenodd" d="M123.92 144.758V142.484C125.583 143.365 125.74 143.06 126.19 144.303C124.979 144.885 125.706 144.715 123.92 144.758ZM122.104 140.21C122.522 141.776 123.012 141.413 123.012 142.029C123.012 145.119 120.446 144.635 129.513 149.16C131.441 150.122 132.434 150.725 134.215 151.726C136.38 152.943 137.672 153.908 138.9 153.4C137.805 151.902 131.363 149 129.362 147.947C128.057 147.261 127.348 146.499 125.736 146.122V145.213C130.406 143.963 138.421 131.873 138.9 126.11C141.324 127.736 148.131 132.41 151.157 132.478C150.748 131.918 138.004 124.291 136.63 124.291C135.352 124.291 135.79 124.488 135.269 125.2C142.996 123.561 131.008 140.62 127.552 142.939C125.247 142.401 125.771 141.657 123.466 141.119C123.899 139.496 124.941 138.997 125.937 137.682C128.388 134.448 131.284 129.446 131.637 125.2C133.132 126.203 134.728 127.875 136.63 128.384C136.135 126.524 133.736 125.549 131.183 123.836C130.628 124.995 128.291 136.058 122.104 140.21ZM124.828 136.116C120.566 136.116 117.234 135.666 114.387 134.297C114.532 135.627 113.34 135.761 118.334 136.71C119.846 136.998 122.612 137.026 124.828 137.026V136.116Z" fill="#0F0F0F"/>
<path fill-rule="evenodd" clip-rule="evenodd" d="M27.229 152.035C31.0106 151.72 27.683 150.682 27.683 139.755C27.683 125.975 40.4041 119.638 47.5393 123.043C54.3955 126.316 55.4594 138.466 44.7356 145.924C41.2523 148.347 35.1253 151.125 29.4987 151.125C28.9206 152.333 29.0845 151.612 29.0448 153.399C27.4587 152.975 28.0254 153.226 27.229 152.035ZM28.1369 151.125C26.9111 151.227 26.902 151.338 25.8672 151.58C26.2889 153.162 26.0531 152.532 27.1848 153.444L29.4987 154.764C30.1215 153.653 29.9527 153.922 29.9527 152.035C40.1235 151.808 54.0118 143.53 54.0118 132.477C54.0118 113.247 22.2143 118.969 26.9548 145.942C27.2905 147.852 27.9784 149.217 28.1369 151.125Z" fill="#9E76F8"/>
<path fill-rule="evenodd" clip-rule="evenodd" d="M156.61 112.47C151.356 112.47 145.553 114.775 143.445 117.928C147.715 116.786 146.535 113.835 157.971 113.835C164.028 113.835 165.424 121.408 163.581 127.2C163.025 128.946 162.476 129.478 162.965 130.663C167.251 127.517 167.421 112.47 156.61 112.47ZM158.879 87C154.046 87 149.491 90.4351 147.531 93.3676C149.37 92.8755 150.648 91.0336 152.367 90.026C166.657 81.6475 175.01 100.863 164.625 112.801C161.918 115.913 163.155 115.811 165.583 113.291C173.723 104.844 171.566 87 158.879 87Z" fill="#9E76F8"/>
<path fill-rule="evenodd" clip-rule="evenodd" d="M83.5354 90.1782C83.8445 90.6662 83.7932 90.1889 83.95 91.1276C84.0165 91.5258 83.992 92.0429 83.9936 92.4524L83.9968 93.3619C84.0555 93.4528 84.1641 93.4715 84.1777 93.6315C84.192 93.7987 84.3091 93.8632 84.3249 93.9375C84.451 94.5282 84.4464 94.5543 84.4501 95.1812V95.6361C84.5089 95.727 84.6177 95.7455 84.6313 95.9057C84.6455 96.0729 84.7628 96.1373 84.7785 96.2116C84.9054 96.8093 84.8991 96.8213 84.9014 97.4554V97.9102L89.493 117.418C90.1287 120.378 90.3774 121.836 88.0749 123.38C85.5604 122.794 85.4693 122.202 84.8973 119.742L81.2656 120.197C84.3711 120.266 82.5677 121.249 84.153 123.672C84.9353 124.867 86.8327 125.667 88.284 125.4C94.4934 124.256 90.4313 112.274 89.0964 105.983C88.4403 102.892 86.7872 97.9391 86.7039 95.1812V94.7264C86.2681 94.2453 86.2591 95.4685 86.2591 93.3619C86.1994 93.271 86.0888 93.0355 86.0751 93.0925C86.0608 93.1518 85.9418 92.8609 85.9259 92.7864C85.7958 92.1753 85.8051 92.1915 85.8051 91.5426L83.5354 87.4492V90.1782Z" fill="#0F0F0F"/>
<path fill-rule="evenodd" clip-rule="evenodd" d="M81.2656 65.1617V86.5385H84.8973V66.5261C84.8973 64.7871 85.0367 66.3605 84.4433 65.1617C87.1928 65.1003 85.774 65.4563 86.2591 64.2521C84.1089 64.2521 81.2656 62.7385 81.2656 65.1617Z" fill="#0F0F0F"/>
<path fill-rule="evenodd" clip-rule="evenodd" d="M94.4219 63.7975C95.3881 65.1189 94.3586 64.655 96.6916 64.7071V85.1742L100.323 84.7194C100.323 58.4692 102.26 63.144 94.4219 63.7975Z" fill="#0F0F0F"/>
<path fill-rule="evenodd" clip-rule="evenodd" d="M8.17241 38.7848C7.72037 37.0886 7.88546 38.0086 6.95564 36.8202C2.22365 30.7725 3.82286 22.5609 8.51225 17.2937C15.1014 9.89264 24.5851 9.24852 30.9863 16.3815C36.3953 22.409 31.8719 25.5582 35.4091 26.5045C35.4091 8.304 13.4739 3.95117 4.98031 20.5772C1.71589 26.9671 2.60183 35.8314 8.17241 38.7848Z" fill="#9E76F8"/>
<path fill-rule="evenodd" clip-rule="evenodd" d="M24.5191 76.0782C25.6852 71.0633 26.101 69.054 28.6857 65.2435L31.1415 62.2463C32.9949 60.4012 34.4845 59.2517 36.9152 58.0251C40.8003 56.0646 44.8577 55.4356 48.7431 57.7198C56.3057 62.1658 55.7481 72.4734 51.0309 79.4452C50.2469 80.604 49.8217 81.002 49.486 82.4457C50.6999 82.121 50.5718 82.2388 52.0962 80.0579C61.2538 66.9571 51.7472 48.9106 35.5597 57.5766C30.2219 60.4343 24.1237 68.0882 23.9064 74.5942C23.8502 76.2807 22.9959 74.9761 24.5191 76.0782Z" fill="#9E76F8"/>
<path fill-rule="evenodd" clip-rule="evenodd" d="M97.1382 107.46C97.5241 108.909 98.9834 110.189 100.77 110.189C102.228 110.189 101.171 110.57 102.132 108.825C106.104 109.156 109.854 114.283 104.401 114.283C101.138 114.283 99.0697 112.281 96.829 110.954C95.4803 110.155 94.6754 109.597 93.5112 108.82C92.3053 108.016 91.0833 107.361 89.875 106.551C90.1896 110.339 91.8939 110.212 95.592 112.648C97.349 113.805 101.576 116.557 103.947 116.557C112.379 116.557 109.532 105.203 99.8618 107.46C100.624 109.353 101.362 106.914 100.77 108.825C99.1853 108.455 98.4003 108.13 97.1382 107.46Z" fill="#0F0F0F"/>
<path fill-rule="evenodd" clip-rule="evenodd" d="M122.109 67.8921C122.109 70.878 123.744 78.3642 127.103 79.2626C124.008 73.403 123.471 73.6563 123.471 66.5275C123.471 59.6242 130.01 52.4279 136.182 52.4279C140.732 52.4279 145.629 52.394 149.172 57.1505C151.255 59.9467 152.524 62.7481 152.524 67.4372H153.432C153.432 61.7463 152.345 58.9363 149.472 55.9407C139.258 45.2909 122.109 53.2702 122.109 67.8921Z" fill="#9E76F8"/>
<path fill-rule="evenodd" clip-rule="evenodd" d="M0 54.2448C0 59.5259 0.951441 65.7829 5.44731 68.7992C4.79208 65.9811 0.90782 63.3972 0.90782 55.6094C0.90782 47.8148 7.70431 40.1452 15.4341 40.1452C20.7431 40.1452 24.7542 41.5129 27.9668 45.7814C29.0964 47.2824 30.1076 49.2014 30.6893 51.2403C31.2156 53.0847 32.0866 56.1558 32.2301 57.8835C33.7224 56.788 33.2202 55.7432 32.0542 51.692C28.4937 39.3202 14.1016 33.8513 3.95851 45.0212C3.14578 45.9163 2.61215 46.4873 1.99051 47.5976C1.29411 48.8413 0 52.5409 0 54.2448Z" fill="#9E76F8"/>
<path fill-rule="evenodd" clip-rule="evenodd" d="M120.75 41.9657C120.75 47.3247 122.835 51.5273 127.105 53.7911C126.52 51.5937 126.872 53.1991 125.455 51.8055C118.841 45.2988 121.667 26.9564 135.73 26.9564C141.669 26.9564 145.948 31.1892 147.079 36.0528H147.987C147.787 27.0692 133.381 21.1562 125.172 30.477C122.787 33.1841 120.75 37.0812 120.75 41.9657Z" fill="#9E76F8"/>
<path fill-rule="evenodd" clip-rule="evenodd" d="M26.7812 40.1456C28.4443 38.9249 27.056 40.4104 27.8121 38.4496C28.1412 37.5962 28.2179 37.24 28.7325 36.1879C33.8077 25.8119 48.3799 26.3266 53.1191 36.9529C56.8941 45.417 51.7707 50.2447 50.8405 54.2452C54.5329 53.2573 58.8086 39.6638 50.9742 31.8248C41.4159 22.2607 26.7812 29.9534 26.7812 40.1456Z" fill="#9E76F8"/>
<path fill-rule="evenodd" clip-rule="evenodd" d="M124.836 16.4946C124.836 19.1999 126.205 24.151 128.921 25.1363C127.344 22.1485 126.198 21.0297 126.198 16.4946C126.198 12.7775 128.354 8.87744 130.167 6.8266C134.998 1.36036 143.149 -0.376674 148.796 5.67774C151.107 8.15481 151.165 10.0963 151.165 14.6753H152.073C152.223 12.8685 152.527 13.5798 152.527 12.4011C152.527 4.31691 141.573 -5.94284 129.709 5.91264C128.288 7.33238 127.44 8.48202 126.484 10.4141C125.83 11.7368 124.836 14.8034 124.836 16.4946Z" fill="#9E76F8"/>
<path fill-rule="evenodd" clip-rule="evenodd" d="M144.805 49.2417C146.812 47.7682 144.789 47.0544 149.671 42.2916C159.145 33.0476 178.507 43.9237 168.558 61.6705C167.69 63.2194 166.748 63.7605 166.594 65.6154C170.084 63.274 172.495 57.6001 172.495 51.9707C172.495 44.6613 166.449 37.8711 157.969 37.8711C151.872 37.8711 144.934 43.4277 144.805 49.2417Z" fill="#9E76F8"/>
<path fill-rule="evenodd" clip-rule="evenodd" d="M143.891 26.5015H144.799C145.494 18.1312 157.232 12.5627 164.906 20.0002C168.081 23.0778 168.858 25.7572 168.858 30.1401C168.858 34.254 167.246 35.4951 166.588 38.3269C171.591 36.9884 173.075 18.6251 158.467 15.5137C151.374 14.0028 144.443 19.8516 143.891 26.5015Z" fill="#9E76F8"/>
<path fill-rule="evenodd" clip-rule="evenodd" d="M123.922 109.738C123.922 112.684 124.71 115.594 126.646 117.015C126.541 115.761 121.244 104.585 131.893 97.2571C136.819 93.8675 143.205 93.77 147.436 98.0039C149.97 100.54 150.251 102.146 150.251 107.009H151.159C151.159 102.146 151.091 100.398 148.564 97.7828C138.785 87.6603 123.922 98.4023 123.922 109.738Z" fill="#9E76F8"/>
<path fill-rule="evenodd" clip-rule="evenodd" d="M27.2352 7.85678C29.9465 6.03776 32.595 1.03449 39.9457 1.03449C49.2755 1.03449 56.4481 10.2253 52.2095 19.6896C51.007 22.3745 50.3343 22.2711 49.0246 24.2305C50.8873 23.7322 52.0325 22.0907 52.8962 20.3775C56.7679 12.6973 52.9442 4.69537 46.9939 1.70465C40.7888 -1.41409 34.2438 -0.175492 29.1596 4.78188C27.9365 5.97445 27.3936 5.9506 27.2352 7.85678ZM26.7812 7.85678L26.9166 7.99254C26.9079 7.98365 26.8264 7.81166 26.7812 7.85678Z" fill="#9E76F8"/>
<path fill-rule="evenodd" clip-rule="evenodd" d="M6.35938 99.7294C6.35938 102.415 7.34106 105.601 8.17141 107.465C9.05401 109.447 10.5227 112.333 12.7145 112.919C12.4438 109.66 7.72117 109.076 7.72117 99.2745C7.72117 93.2152 10.9581 93.8173 11.8067 90.6328C8.7318 92.2631 6.35938 95.0758 6.35938 99.7294Z" fill="#9E76F8"/>
<path fill-rule="evenodd" clip-rule="evenodd" d="M108.945 110.191C110.545 112.379 113.399 110.523 119.256 118.509C120.772 120.576 121.825 121.503 123.585 123.268C129.058 128.755 130.577 127.818 126.856 125.01C124.825 123.477 121.55 119.74 120.039 117.724C117.631 114.514 114.099 110.306 108.945 110.191Z" fill="#0F0F0F"/>
<path fill-rule="evenodd" clip-rule="evenodd" d="M86.2438 106.551C86.177 103.548 82.8862 101.604 80.4392 100.541C79.1287 99.9713 78.3904 100.183 76.7109 100.183C77.4432 101.184 79.9041 102.67 81.1588 103.459C82.1378 104.073 82.6874 104.324 83.705 105.001C84.8376 105.754 85.1194 105.954 86.2438 106.551Z" fill="#0F0F0F"/>
<path fill-rule="evenodd" clip-rule="evenodd" d="M110.312 118.835L110.448 118.699C110.439 118.708 110.267 118.79 110.312 118.835ZM122.115 131.57V130.66C120.708 130.543 119.227 129.832 118.2 129.125C115.518 127.278 113.431 120.623 110.766 118.835L114.774 126.645C116.448 129.043 118.261 131.484 122.115 131.57Z" fill="#0F0F0F"/>
<path fill-rule="evenodd" clip-rule="evenodd" d="M103.049 127.475C106.029 127.475 108.974 127.94 110.312 126.11C107.886 126.11 105.454 126.133 103.03 126.129C101.706 126.127 100.504 126.08 99.768 125.759C98.9172 125.388 99.3368 125.555 98.7476 124.962C97.992 124.201 98.6454 124.258 97.6016 123.836C97.7596 125.738 97.8616 126.021 99.3231 126.659C100.137 127.015 101.699 127.475 103.049 127.475Z" fill="#0F0F0F"/>
<path fill-rule="evenodd" clip-rule="evenodd" d="M104.861 131.567C108.035 131.567 109.219 131.691 110.308 130.202C97.8071 130.202 103.237 129.605 99.8672 128.383C100.425 130.783 102 131.567 104.861 131.567Z" fill="#0F0F0F"/>
<path fill-rule="evenodd" clip-rule="evenodd" d="M104.411 122.014C103.918 120.164 104.013 120.712 99.7598 119.852C97.1007 119.314 96.2092 119.285 93.0625 119.285C94.1214 120.733 93.2527 120.009 98.3922 120.768C99.7654 120.97 103.226 121.444 104.411 122.014Z" fill="#0F0F0F"/>
<path fill-rule="evenodd" clip-rule="evenodd" d="M108.502 135.204C110.895 135.204 112.035 135.457 112.588 133.384C106.707 133.516 110.522 134.673 103.055 132.93C103.904 134.2 103.463 133.885 105.127 134.492C106.379 134.95 107.034 135.204 108.502 135.204Z" fill="#0F0F0F"/>
<path fill-rule="evenodd" clip-rule="evenodd" d="M85.3304 117.017C86.5647 117.017 86.5205 116.472 87.0937 115.6C87.7098 114.664 87.7697 114.603 88.0542 113.379C84.8859 113.643 83.4011 117.017 85.3304 117.017Z" fill="#0F0F0F"/>
</g>
<defs>
<clipPath id="clip0_678_38337">
<rect width="172.499" height="154.466" fill="white"/>
</clipPath>
</defs>
</svg>
